<svg id="artwork" xmlns="http://www.w3.org/2000/svg" width="64" height="64" viewBox="0 0 64 64"><title>blog</title><path d="M14,9.5H8a1.5,1.5,0,0,0,0,3h6a1.5,1.5,0,0,0,0-3Z"/><path d="M60,3.5H4A3.5,3.5,0,0,0,.5,7V57A3.5,3.5,0,0,0,4,60.5H60A3.5,3.5,0,0,0,63.5,57V7A3.5,3.5,0,0,0,60,3.5ZM3.5,7A.5.5,0,0,1,4,6.5H60a.5.5,0,0,1,.5.5v8.5H3.5Zm57,50a.5.5,0,0,1-.5.5H4a.5.5,0,0,1-.5-.5V18.5h57Z"/><path d="M56,29.5H44a1.5,1.5,0,0,0,0,3H56a1.5,1.5,0,0,0,0-3Z"/><path d="M56,36.5H44a1.5,1.5,0,0,0,0,3H56a1.5,1.5,0,0,0,0-3Z"/><path d="M56,50.5H44a1.5,1.5,0,0,0,0,3H56a1.5,1.5,0,0,0,0-3Z"/><path d="M8,25.5H56a1.5,1.5,0,0,0,0-3H8a1.5,1.5,0,0,0,0,3Z"/><path d="M56,43.5H44a1.5,1.5,0,0,0,0,3H56a1.5,1.5,0,0,0,0-3Z"/><path d="M38,40.5a37.769,37.769,0,0,0-29.309,14H38A1.5,1.5,0,0,0,39.5,53V40.5Z" style="fill:#3e3ef4"/><path d="M38,29.5H8A1.5,1.5,0,0,0,6.5,31V52.445C6.792,52.223,17.72,37.5,38,37.5h1.5V31A1.5,1.5,0,0,0,38,29.5ZM12,37a2,2,0,1,1,2-2A2,2,0,0,1,12,37Z" style="fill:#3e3ef4"/></svg>