<svg class="animated" id="freepik_stories-water-drop" xmlns="http://www.w3.org/2000/svg" viewBox="0 0 500 500" version="1.1" xmlns:xlink="http://www.w3.org/1999/xlink" xmlns:svgjs="http://svgjs.com/svgjs"><style>svg#freepik_stories-water-drop:not(.animated) .animable {opacity: 0;}svg#freepik_stories-water-drop.animated #freepik--background-complete--inject-29 {animation: 1.5s Infinite  linear floating;animation-delay: 0s;}svg#freepik_stories-water-drop.animated #freepik--drops-2--inject-29 {animation: 1.5s Infinite  linear floating;animation-delay: 0s;}svg#freepik_stories-water-drop.animated #freepik--drop-1--inject-29 {animation: 1.5s Infinite  linear floating;animation-delay: 0s;}            @keyframes floating {                0% {                    opacity: 1;                    transform: translateY(0px);                }                50% {                    transform: translateY(-10px);                }                100% {                    opacity: 1;                    transform: translateY(0px);                }            }        </style><g id="freepik--background-complete--inject-29" class="animable" style="transform-origin: 251.391px 238.96px;"><path d="M34.61,336.52s-10.34,14.79-13,19.6c-1.82,3.36-5,10.71.12,19.45,4.3,7.32,10.14,7.75,14.35,7.75,5.93,0,14.59-5.91,14.59-17.23,0,0-.16-6.27-3-10.46-2.17-3.24-12.69-19.7-12.69-19.7Z" style="fill: rgb(235, 235, 235); transform-origin: 34.8108px 359.625px;" id="ela5arz7kgm9g" class="animable"></path><path d="M45.2,360.61c.35-.16,1.23.86,1.8,3a14.13,14.13,0,0,1-.56,8.5,12.82,12.82,0,0,1-5.23,6.37c-1.8,1-3.09,1.07-3.23.69s.77-1.2,2-2.53a18.32,18.32,0,0,0,3.73-5.78,19.52,19.52,0,0,0,1.22-6.92C44.94,362,44.8,360.78,45.2,360.61Z" style="fill: rgb(255, 255, 255); transform-origin: 42.6861px 369.988px;" id="el6vmmwwabmxi" class="animable"></path><path d="M45.29,358.56a1,1,0,1,1-1-1.09A1.05,1.05,0,0,1,45.29,358.56Z" style="fill: rgb(255, 255, 255); transform-origin: 44.2924px 358.47px;" id="elfwsl9zcmtyr" class="animable"></path><path d="M369.82,387.19c-1.25-85.87-18.35-181.38-46.93-262.37,0,0,23.92,104.24,36.24,181.22,3.38,21.13,4.58,53.25,4.11,77.33l-1.14,43.55h7.72Z" style="fill: rgb(245, 245, 245); transform-origin: 346.355px 275.87px;" id="elbm7pximitzc" class="animable"></path><path d="M359.44,287.64s-55.21-7.81-74.19-16.28-58.61-36.12-58.61-36.12,51-7.92,75.49,3.19,56.7,44.47,56.7,44.47Z" style="fill: rgb(245, 245, 245); transform-origin: 293.04px 260.072px;" id="eli1kufpcj6r" class="animable"></path><path d="M357.78,286.82s27.65-48.43,42.53-62.93,55.22-41.12,55.22-41.12-11.48,50.32-30.85,69S362.41,288,362.41,288Z" style="fill: rgb(245, 245, 245); transform-origin: 406.655px 235.385px;" id="elrwdl55kfcg7" class="animable"></path><path d="M366.31,353.91s-49.14-7-66-14.49-52.16-32.15-52.16-32.15,45.39-7,67.18,2.85,50.45,39.57,50.45,39.57Z" style="fill: rgb(245, 245, 245); transform-origin: 307.23px 329.384px;" id="elbwd3rlcgo7u" class="animable"></path><path d="M364.83,353.18s24.61-43.1,37.85-56,49.14-36.59,49.14-36.59S441.6,305.36,424.36,322,369,354.23,369,354.23Z" style="fill: rgb(245, 245, 245); transform-origin: 408.325px 307.41px;" id="el7pj7t291v26" class="animable"></path><path d="M346,216.63s17.71-48.9,29.62-65.93S422.21,100,422.21,100s-1.89,51.58-17.43,73.52-54.4,47.25-54.4,47.25Z" style="fill: rgb(245, 245, 245); transform-origin: 384.105px 160.385px;" id="elc2ig6kr8td" class="animable"></path><path d="M347.61,221.61s-49.89-4.42-67.31-11.12S226,180.84,226,180.84s45.38-9.49,67.86-.68,52.95,37.22,52.95,37.22Z" style="fill: rgb(245, 245, 245); transform-origin: 286.805px 199.012px;" id="el8k5ib6x60jf" class="animable"></path><path d="M330.86,156.27s-46.34-5.27-62.39-11.92-49.82-28.86-49.82-28.86,42.46-7.78,63.18,1,48.41,35.88,48.41,35.88Z" style="fill: rgb(245, 245, 245); transform-origin: 274.755px 134.29px;" id="elebntd7tc5zb" class="animable"></path><path d="M331.75,158.46s10-43,18-58.27S382.31,52.7,382.31,52.7,384,93.22,373.41,113,334.27,161,334.27,161Z" style="fill: rgb(245, 245, 245); transform-origin: 357.079px 106.85px;" id="el3owdijrzn5i" class="animable"></path><path d="M326.71,143.58s-25.56-37.68-30.59-54.32-9.24-56.82-9.24-56.82,32.92,27.91,39.3,49.47S328,143.34,328,143.34Z" style="fill: rgb(245, 245, 245); transform-origin: 308.229px 88.01px;" id="el6bcu75pasot" class="animable"></path><path d="M178.43,378.82c-1.4,1-2.11,3.57-1.52,4.73a6.86,6.86,0,0,0,2.73,2.69,4,4,0,0,0,1.54.6,3.27,3.27,0,0,0,2.2-.66,4.84,4.84,0,0,0,1.31-6.35,4.4,4.4,0,0,0-6.26-1" style="fill: rgb(224, 224, 224); transform-origin: 181.028px 382.395px;" id="elw6r1qs9r9tj" class="animable"></path><path d="M374.12,387.37a1.51,1.51,0,0,0-1.52-2.22,10.61,10.61,0,0,0-8,5.75c-.69,1.43-1,3-1.63,4.49-2.41,5.94-8.45,9.57-13.7,13a3.87,3.87,0,0,1-3.71.35c-3.06-1.41-1.28-5.5,1.34-6.7,3.08-1.41,6.89-.79,9.45-3.61a3.35,3.35,0,0,0,.5-3.9c-.95-1.62-2.72-1.56-4.23-1.2a13.68,13.68,0,0,0-8.6,6.44c-1.1,1.93-1.81,4.23-3.61,5.53-2.47,1.77-6.07,1-8.62,2.67-2,1.3-2.85,3.75-4.35,5.6a9.52,9.52,0,0,1-16.65-8.22c.51-2.13,1.76-4.26,1.17-6.37-.76-2.71-4.84-4.22-6.85-.93a4.56,4.56,0,0,0-.52,3.37,11.24,11.24,0,0,1,.47,2.73c-.08,2.76-2.87,4.55-5.32,5.83-6.07,3.17-13,6.43-19.5,4.4-3.35-1-6.13-3.35-9.08-5.25A40.63,40.63,0,0,0,254,403.05c-3.21-.37-7.15-.81-8.39-3.79a4.79,4.79,0,0,1-.24-.73,7,7,0,0,0-8.41-5.22c-3.15.78-6.39,2.43-9.53,1.29a1.6,1.6,0,0,1-1-.88c-.48-1.15.78-2,1.44-2.93,1.41-2-.43-5.15-2.88-5.35s-4.65,2-5,4.43c-.42,2.88,1.29,5.8,3.51,7.58a6.46,6.46,0,0,1,1.73,2c1.81,3.45-1.5,5.64-4.27,6.94l-9.06,4.25c-3.64,1.71-7.43,3.45-11.44,3.41-8.78-.1-15-8.28-19.8-15.63l-18.95-29.07c-2.25-3.46-4.55-7-5.4-11-1.48-7,1.51-14.53-1.77-21.1a3.6,3.6,0,0,0-3.12-2.07c-3.81-.08-3.83,6.17-2,8.89a6.66,6.66,0,0,1,.91,5.92c-1.55,4.41-6.63,2.75-8.29-.34-1.35-2.51-1.21-5.52-1.44-8.37a30.33,30.33,0,0,0-2.83-10.56c-.85-1.78-2-3.6-4-4.14a3,3,0,0,0-3.2,1c-.89,1.22-.38,2.68.11,4,4.06,10.68,44.15,110.57,46,121.85l159.56,2.49c7.28-8.73,20.9-43,28.17-51.69,1.45-1.74,3-3.68,3-5.94,0-1.23-.48-2.45-.26-3.66C367.74,391.34,372.74,389.72,374.12,387.37Z" style="fill: rgb(224, 224, 224); transform-origin: 252.194px 391.187px;" id="elvj94goty57" class="animable"></path><path d="M122.38,337.26c-1.89-.59-3.92,1.35-3.81,3.32a4.7,4.7,0,0,0,3.79,4,2.93,2.93,0,0,0,1.5,0,2.67,2.67,0,0,0,1.1-.72,4,4,0,0,0-2.85-6.72" style="fill: rgb(255, 255, 255); transform-origin: 122.297px 340.909px;" id="elhev7ep60ry" class="animable"></path><path d="M385.28,389.55c-1.89-.59-3.92,1.35-3.81,3.32a4.71,4.71,0,0,0,3.79,4,3,3,0,0,0,1.5,0,2.52,2.52,0,0,0,1.1-.72,4,4,0,0,0-2.85-6.72" style="fill: rgb(255, 255, 255); transform-origin: 385.197px 393.198px;" id="ellm6con23o1n" class="animable"></path><path d="M135.79,318.44a2,2,0,0,0-.64,3,7.67,7.67,0,0,0,2.18,1.19,4.94,4.94,0,0,1,2.49,3.17c.12.5.23,1.11.71,1.31a1.16,1.16,0,0,0,.92-.11c1.7-.85,2.07-3.23,1.43-5a6,6,0,0,0-2.79-3.34,4.86,4.86,0,0,0-4.3-.16" style="fill: rgb(224, 224, 224); transform-origin: 138.95px 322.617px;" id="elv2m0cryb2k" class="animable"></path><circle cx="129.3" cy="319.35" r="2.14" style="fill: rgb(224, 224, 224); transform-origin: 129.3px 319.35px;" id="elzf7y6bcbto" class="animable"></circle><circle cx="120.48" cy="352.64" r="2.14" style="fill: rgb(255, 255, 255); transform-origin: 120.48px 352.64px;" id="elgljxivqodyp" class="animable"></circle><circle cx="151.83" cy="330.25" r="1.22" style="fill: rgb(224, 224, 224); transform-origin: 151.83px 330.25px;" id="elrwsmzwda6xm" class="animable"></circle><path d="M155.33,330.68a1.36,1.36,0,0,0,.13,2.31c.34.19.76.23,1.08.45a2.47,2.47,0,0,1,.81,1.55,2,2,0,0,0,.91,1.48,1.39,1.39,0,0,0,1.63-.59,3.09,3.09,0,0,0,.39-1.82,8.5,8.5,0,0,0-.25-1.73,3,3,0,0,0-.64-1.35,2.44,2.44,0,0,0-1.64-.71,7.38,7.38,0,0,0-1.81.15" style="fill: rgb(224, 224, 224); transform-origin: 157.521px 333.404px;" id="elqwrao8kppbf" class="animable"></path><path d="M156.17,327.93a3.52,3.52,0,0,0,1.19.25,1.23,1.23,0,0,0,1.06-.51,1.12,1.12,0,0,0-.17-1.31,1.72,1.72,0,0,0-1.28-.51,4.12,4.12,0,0,0-1.38.3c-.38.14-.8.36-.88.75a.87.87,0,0,0,.57.91,2.44,2.44,0,0,0,1.14.11" style="fill: rgb(224, 224, 224); transform-origin: 156.632px 327.015px;" id="el73jv07uljlu" class="animable"></path><path d="M314.38,392.62a3.52,3.52,0,0,0,1.19.25,1.23,1.23,0,0,0,1.05-.51,1.11,1.11,0,0,0-.16-1.31,1.73,1.73,0,0,0-1.28-.51,4.17,4.17,0,0,0-1.39.3c-.38.14-.8.36-.88.75a.87.87,0,0,0,.57.91,2.35,2.35,0,0,0,1.15.11" style="fill: rgb(224, 224, 224); transform-origin: 314.835px 391.705px;" id="elb3q7uhx7cwl" class="animable"></path><path d="M296.28,401.44a2.3,2.3,0,0,0-.76,2.36,3.49,3.49,0,0,0,1.37,1.35,2.13,2.13,0,0,0,.77.3,1.68,1.68,0,0,0,1.1-.33,2.43,2.43,0,0,0,.66-3.18,2.21,2.21,0,0,0-3.14-.5" style="fill: rgb(224, 224, 224); transform-origin: 297.597px 403.224px;" id="elc2jct3m3y8" class="animable"></path><path d="M357,381.48c-1.4,1-2.11,3.57-1.52,4.72a6.89,6.89,0,0,0,2.73,2.7,4.16,4.16,0,0,0,1.54.6,3.27,3.27,0,0,0,2.2-.66,4.86,4.86,0,0,0,1.31-6.36,4.41,4.41,0,0,0-6.26-1" style="fill: rgb(224, 224, 224); transform-origin: 359.597px 385.053px;" id="elyjb1yp0l0j" class="animable"></path><path d="M374.28,379.5a2.3,2.3,0,0,0-.76,2.37,3.44,3.44,0,0,0,1.36,1.34,1.88,1.88,0,0,0,.77.3,1.62,1.62,0,0,0,1.1-.32,2.43,2.43,0,0,0,.66-3.18,2.2,2.2,0,0,0-3.13-.51" style="fill: rgb(224, 224, 224); transform-origin: 375.591px 381.288px;" id="elj2ysl86p54" class="animable"></path><path d="M371.45,426.17a3.78,3.78,0,1,1-3.78-3.78A3.78,3.78,0,0,1,371.45,426.17Z" style="fill: rgb(224, 224, 224); transform-origin: 367.67px 426.17px;" id="elfv8w7kneol9" class="animable"></path><circle cx="146.49" cy="414.57" r="3.78" style="fill: rgb(224, 224, 224); transform-origin: 146.49px 414.57px;" id="elgah6rvo9vv" class="animable"></circle><path d="M167.91,52.2s-5,7.22-6.32,9.57a9.19,9.19,0,0,0,0,9.5,7.2,7.2,0,0,0,7,3.79c2.9,0,7.13-2.89,7.13-8.42a11.22,11.22,0,0,0-1.45-5.11c-1.06-1.58-6.2-9.62-6.2-9.62Z" style="fill: rgb(245, 245, 245); transform-origin: 167.994px 63.4994px;" id="elg6wfj3dnkp" class="animable"></path><path d="M173.09,64c.17-.08.6.43.88,1.46a6.92,6.92,0,0,1-.27,4.15,6.22,6.22,0,0,1-2.56,3.11c-.88.51-1.51.53-1.58.34s.38-.58,1-1.23A9,9,0,0,0,172.36,69a9.37,9.37,0,0,0,.59-3.38C173,64.66,172.89,64.05,173.09,64Z" style="fill: rgb(255, 255, 255); transform-origin: 171.861px 68.5812px;" id="eltzqig54exk8" class="animable"></path><path d="M173.13,63a.49.49,0,1,1-.49-.53A.52.52,0,0,1,173.13,63Z" style="fill: rgb(255, 255, 255); transform-origin: 172.641px 62.96px;" id="elqa64gryegoj" class="animable"></path><path d="M451.62,22.51s-8.77,12.55-11,16.63a16,16,0,0,0,.1,16.5c3.64,6.22,8.6,6.59,12.18,6.59,5,0,12.37-5,12.37-14.63,0,0-.13-5.32-2.51-8.88C460.93,36,452,22,452,22Z" style="fill: rgb(245, 245, 245); transform-origin: 451.824px 42.115px;" id="elcaziyxl2pl" class="animable"></path><path d="M460.61,43c.29-.14,1,.73,1.53,2.53a12,12,0,0,1-.48,7.21,10.86,10.86,0,0,1-4.44,5.41c-1.52.88-2.62.91-2.74.58s.65-1,1.7-2.14a15.54,15.54,0,0,0,3.16-4.9,16.45,16.45,0,0,0,1-5.88C460.39,44.17,460.27,43.1,460.61,43Z" style="fill: rgb(255, 255, 255); transform-origin: 458.475px 50.9545px;" id="elsbu2r0tx8t" class="animable"></path><path d="M460.69,41.21a.86.86,0,1,1-1.71,0,.86.86,0,1,1,1.71,0Z" style="fill: rgb(255, 255, 255); transform-origin: 459.835px 41.21px;" id="el46gvui8o0dc" class="animable"></path><path d="M32.41,199.44S24.89,210.2,23,213.7a13.68,13.68,0,0,0,.08,14.14c3.13,5.33,7.38,5.64,10.44,5.64,4.31,0,10.61-4.29,10.61-12.53,0,0-.11-4.56-2.15-7.61C40.39,211,32.74,199,32.74,199Z" style="fill: rgb(245, 245, 245); transform-origin: 32.6006px 216.24px;" id="elrw6dncvtvva" class="animable"></path><path d="M40.11,217c.26-.12.9.63,1.32,2.17a10.32,10.32,0,0,1-.41,6.18,9.2,9.2,0,0,1-3.81,4.63c-1.31.76-2.25.79-2.35.51s.56-.88,1.46-1.84a13.37,13.37,0,0,0,2.71-4.2,14.38,14.38,0,0,0,.89-5C39.93,218,39.82,217.09,40.11,217Z" style="fill: rgb(255, 255, 255); transform-origin: 38.2861px 223.82px;" id="ela8gmpfcv1wf" class="animable"></path><path d="M40.18,215.47a.73.73,0,1,1-.73-.79A.76.76,0,0,1,40.18,215.47Z" style="fill: rgb(255, 255, 255); transform-origin: 39.4515px 215.41px;" id="elaweqcj4l5ok" class="animable"></path><path d="M56.11,35.65S45.65,50.62,43,55.49c-1.85,3.4-5.07,10.84.12,19.69C47.47,82.59,53.38,83,57.65,83c6,0,14.76-6,14.76-17.45,0,0-.16-6.35-3-10.59-2.19-3.27-12.84-19.94-12.84-19.94Z" style="fill: rgb(235, 235, 235); transform-origin: 56.3564px 59.01px;" id="el5or54ohsk4o" class="animable"></path><path d="M66.83,60c.36-.16,1.25.88,1.83,3a14.23,14.23,0,0,1-.57,8.6A12.86,12.86,0,0,1,62.8,78.1c-1.82,1.05-3.14,1.09-3.28.7s.78-1.22,2-2.55a18.54,18.54,0,0,0,3.78-5.86,19.78,19.78,0,0,0,1.23-7C66.57,61.48,66.43,60.21,66.83,60Z" style="fill: rgb(255, 255, 255); transform-origin: 64.2894px 69.5055px;" id="elhxifdt99j0w" class="animable"></path><path d="M66.93,58a1,1,0,1,1-1-1.1A1.06,1.06,0,0,1,66.93,58Z" style="fill: rgb(255, 255, 255); transform-origin: 65.9329px 57.9px;" id="elsentz6ulvuh" class="animable"></path><path d="M472.6,177.12s-7.23,10.34-9.05,13.71a13.15,13.15,0,0,0,.08,13.6c3,5.12,7.09,5.42,10,5.42,4.14,0,10.2-4.13,10.2-12,0,0-.11-4.39-2.07-7.32-1.52-2.26-8.88-13.77-8.88-13.77Z" style="fill: rgb(235, 235, 235); transform-origin: 472.763px 193.305px;" id="elwdqjuutupjk" class="animable"></path><path d="M480,194c.25-.12.87.6,1.26,2.08a9.75,9.75,0,0,1-.39,5.94,8.88,8.88,0,0,1-3.66,4.46c-1.25.73-2.16.75-2.26.48s.54-.84,1.4-1.76a12.76,12.76,0,0,0,2.61-4,13.58,13.58,0,0,0,.85-4.84C479.83,195,479.73,194.09,480,194Z" style="fill: rgb(255, 255, 255); transform-origin: 478.245px 200.553px;" id="ellzh4256lf8" class="animable"></path><path d="M480.08,192.54a.71.71,0,1,1-.71-.77A.74.74,0,0,1,480.08,192.54Z" style="fill: rgb(255, 255, 255); transform-origin: 479.372px 192.48px;" id="el25rcjzj34zv" class="animable"></path><path d="M445.39,315s-7.23,10.35-9.06,13.71a13.2,13.2,0,0,0,.08,13.6c3,5.13,7.1,5.43,10,5.43,4.15,0,10.2-4.14,10.2-12.06,0,0-.11-4.38-2.07-7.31-1.51-2.27-8.87-13.78-8.87-13.78Z" style="fill: rgb(245, 245, 245); transform-origin: 445.547px 331.165px;" id="el6x6nyu72xsq" class="animable"></path><path d="M452.8,331.81c.25-.11.86.6,1.26,2.09a9.83,9.83,0,0,1-.39,5.94,8.86,8.86,0,0,1-3.66,4.45c-1.26.73-2.16.76-2.26.49s.54-.84,1.4-1.77a12.71,12.71,0,0,0,2.61-4,13.66,13.66,0,0,0,.85-4.85C452.62,332.81,452.52,331.93,452.8,331.81Z" style="fill: rgb(255, 255, 255); transform-origin: 451.043px 338.368px;" id="elmbrg7hixuvd" class="animable"></path><path d="M452.87,330.38a.74.74,0,0,1-.71.76.76.76,0,0,1,0-1.52A.74.74,0,0,1,452.87,330.38Z" style="fill: rgb(255, 255, 255); transform-origin: 452.135px 330.38px;" id="elsmk29u8ymlc" class="animable"></path></g><g id="freepik--Plants--inject-29" class="animable animator-active" style="transform-origin: 248.61px 270.215px;"><path d="M181,158.26c-58.78,92.47-91.46,169.79-102.4,278.82l2.6-.62,5.19-.27s2.85-68.87,26.87-128C139.4,243.87,181,158.26,181,158.26Z" style="fill: #2C94E9; transform-origin: 129.8px 297.67px;" id="eled70fsbst7g" class="animable"></path><path d="M116.71,292.15s49.45,4.29,67.6.75,58.07-19.59,58.07-19.59S199.74,256.23,176.27,261s-58.08,27.2-58.08,27.2Z" style="fill: #2C94E9; transform-origin: 179.545px 277.23px;" id="elll1yomcrmw" class="animable"></path><path d="M221.41,273.38a.82.82,0,0,1-.26,0l-.79.06c-.7,0-1.72.11-3,.16-2.64.11-6.46.22-11.18.31s-10.35.17-16.58.39c-3.12.11-6.39.26-9.77.57-1.69.15-3.39.37-5.11.67s-3.4.88-5.14,1.34c-7,1.83-13.71,3.23-19.8,4.59s-11.57,2.65-16.14,3.84-8.23,2.25-10.77,3l-2.92.86-.76.21a.88.88,0,0,1-.26.06s.08,0,.25-.11l.74-.26,2.89-1c2.52-.79,6.17-1.92,10.74-3.14s10-2.57,16.12-3.94,12.81-2.81,19.77-4.64c1.74-.45,3.44-1,5.18-1.33s3.47-.53,5.17-.68c3.39-.3,6.67-.45,9.79-.54,6.25-.19,11.87-.22,16.59-.27l11.18-.16,3-.05h.79A.8.8,0,0,1,221.41,273.38Z" style="fill: rgb(38, 50, 56); transform-origin: 170.17px 281.38px;" id="ellbizsr8cwr" class="animable"></path><path d="M99.57,345.88s49.64-.24,67.4-5.42,56-24.8,56-24.8-44-13.13-67-6.27-55.35,32.38-55.35,32.38Z" style="fill: #2C94E9; transform-origin: 161.27px 326.643px;" id="elwfxue4zzczm" class="animable"></path><path d="M202.13,317.64l-.26.06-.78.13c-.69.1-1.7.26-3,.43-2.62.36-6.42.81-11.11,1.33s-10.29,1.11-16.48,1.9c-3.09.39-6.34.84-9.67,1.46-1.66.3-3.35.68-5,1.14s-3.32,1.18-5,1.79c-6.78,2.47-13.35,4.48-19.3,6.39s-11.27,3.69-15.71,5.29-8,3-10.46,3.95l-2.82,1.13-.74.28-.26.08a.84.84,0,0,1,.24-.13l.72-.33,2.78-1.22c2.44-1,6-2.47,10.41-4.11s9.75-3.48,15.7-5.4,12.5-4,19.26-6.42c1.69-.61,3.33-1.28,5-1.8s3.4-.84,5.08-1.14c3.35-.61,6.6-1.06,9.7-1.44,6.2-.76,11.8-1.3,16.5-1.78l11.12-1.17,3-.34.79-.07A.79.79,0,0,1,202.13,317.64Z" style="fill: rgb(38, 50, 56); transform-origin: 151.835px 330.316px;" id="elzkd41zxzxo" class="animable"></path><path d="M86.58,399.88s49.51-3.61,66.87-10,54.22-28.56,54.22-28.56-44.81-10.1-67.23-1.7-53,36.08-53,36.08Z" style="fill: #2C94E9; transform-origin: 147.125px 378.081px;" id="eloteg1jmpc6a" class="animable"></path><path d="M187,364.72a.77.77,0,0,1-.26.08L186,365c-.68.15-1.68.38-3,.64-2.59.54-6.35,1.25-11,2.09s-10.19,1.81-16.31,3c-3.06.6-6.27,1.28-9.55,2.12q-2.46.62-4.94,1.47c-1.61.62-3.22,1.41-4.87,2.14-6.6,2.91-13,5.37-18.82,7.68s-11,4.45-15.32,6.35S94.41,394,92,395.13l-2.74,1.32-.72.33a.84.84,0,0,1-.25.09l.23-.14.69-.38,2.7-1.4c2.36-1.18,5.79-2.88,10.1-4.81s9.5-4.13,15.3-6.46,12.2-4.8,18.78-7.71c1.65-.73,3.23-1.51,4.9-2.14s3.34-1.07,5-1.49c3.3-.84,6.52-1.5,9.59-2.09,6.13-1.18,11.68-2.1,16.33-2.9l11-1.93,3-.54.78-.13Z" style="fill: rgb(38, 50, 56); transform-origin: 137.645px 380.795px;" id="el2sm26pchss6" class="animable"></path><path d="M84.94,401.39s-36.08-25.08-45.58-38.3c-7.74-10.77-15-37.86-15-37.86s29.18,10.41,42.14,27,19.73,45.6,19.73,45.6Z" style="fill: #2C94E9; transform-origin: 55.295px 363.31px;" id="el9medek75ig7" class="animable"></path><path d="M32.58,335a5.21,5.21,0,0,1,.65.54L35,337.1c1.57,1.46,3.8,3.5,6.52,6s6,5.58,9.59,9a135,135,0,0,1,11,11.74,159.18,159.18,0,0,1,9.57,13c2.75,4.12,5.11,7.9,7.07,11.09s3.52,5.79,4.59,7.59l1.22,2.08a4.72,4.72,0,0,1,.39.74,5.89,5.89,0,0,1-.48-.69l-1.3-2-4.73-7.5c-2-3.16-4.39-6.92-7.16-11s-5.94-8.52-9.57-12.92a138.79,138.79,0,0,0-11-11.72C47.26,349,44,346,41.3,343.37l-6.41-6.12-1.73-1.68A4.71,4.71,0,0,1,32.58,335Z" style="fill: rgb(38, 50, 56); transform-origin: 58.765px 366.67px;" id="el0fe3kbpbrcrg" class="animable"></path><path d="M98.11,349.78s-38.7-31.09-49.37-46.2-28.42-54.29-28.42-54.29,42.62,17.13,56.31,36.77,23.16,59.81,23.16,59.81Z" style="fill: #2C94E9; transform-origin: 60.055px 299.535px;" id="elde2h2m2us7e" class="animable"></path><path d="M35.42,263.83s.08.05.21.17l.57.55,2.16,2.15,8,7.84c3.37,3.3,7.42,7.21,11.8,11.67,2.19,2.22,4.46,4.59,6.7,7.16q1.69,1.92,3.27,4.05c1,1.48,1.87,3,2.82,4.55,3.76,6.14,7.64,11.8,11.08,17s6.48,9.95,8.92,14,4.31,7.38,5.59,9.7l1.42,2.69c.15.28.27.52.36.7a2.15,2.15,0,0,1,.11.25,1.23,1.23,0,0,1-.16-.22l-.4-.68-1.51-2.64c-1.33-2.28-3.23-5.6-5.72-9.6s-5.54-8.74-9-13.93-7.35-10.86-11.13-17c-.94-1.53-1.82-3.1-2.8-4.52s-2.11-2.74-3.22-4c-2.23-2.55-4.49-4.93-6.66-7.16-4.36-4.47-8.38-8.4-11.72-11.74s-6-6.05-7.86-8c-.92-.95-1.61-1.7-2.09-2.21l-.53-.59A1.07,1.07,0,0,1,35.42,263.83Z" style="fill: rgb(38, 50, 56); transform-origin: 66.925px 305.07px;" id="el2pvr505ixj3" class="animable"></path><path d="M118.32,291.77S104,244.23,94,228.66s-39.65-46.72-39.65-46.72-.13,45.94,12.94,66,46.73,43.93,46.73,43.93Z" style="fill: #2C94E9; transform-origin: 86.335px 236.905px;" id="elbx3dmysjj2u" class="animable"></path><path d="M62.19,201.4s.06.07.14.23l.35.7L64,205.06c1.14,2.37,2.83,5.78,5,9.94s4.86,9.08,8,14.44c1.56,2.69,3.24,5.48,5,8.34s3.75,5.78,5.56,8.89c3.62,6.2,6.82,12.25,9.89,17.65s6,10.18,8.59,14.09,4.87,7,6.44,9.08c.79,1,1.41,1.81,1.85,2.39l.48.63c.1.14.15.22.14.23a2,2,0,0,1-.19-.2l-.51-.6-1.93-2.33c-1.62-2.07-4-5.08-6.59-9s-5.6-8.66-8.69-14.06-6.31-11.44-9.93-17.63c-1.81-3.09-3.74-6-5.54-8.87s-3.47-5.68-5-8.37c-3.11-5.39-5.77-10.33-7.91-14.52s-3.78-7.62-4.87-10c-.55-1.19-1-2.14-1.22-2.77l-.31-.73Z" style="fill: rgb(38, 50, 56); transform-origin: 88.5706px 246.07px;" id="elirb1o12gx4e" class="animable"></path><path d="M142.58,233.25s-5.56-46-12.48-63.12-30.22-53.31-30.22-53.31-8.7,45.11.38,67.25S138,236,138,236Z" style="fill: #2C94E9; transform-origin: 119.352px 176.41px;" id="el3ayhftkzq9n" class="animable"></path><path d="M103.91,137.4s0,.08.12.24.16.44.28.74c.25.68.59,1.63,1,2.84l3.79,10.45c1.59,4.43,3.48,9.69,5.57,15.53s4.32,12.31,6.46,19.14c4.44,13.62,9.17,25.71,12.54,34.48,1.67,4.35,3,7.89,4,10.38l1.07,2.83.26.74a1.87,1.87,0,0,1,.08.26,1.31,1.31,0,0,1-.13-.24l-.31-.73c-.28-.67-.67-1.61-1.15-2.79L133.37,221c-3.46-8.73-8.25-20.81-12.69-34.45-2.15-6.84-4.36-13.28-6.42-19.14s-3.91-11.12-5.47-15.57-2.76-8-3.64-10.51c-.4-1.21-.71-2.18-.94-2.87l-.24-.75A1.71,1.71,0,0,1,103.91,137.4Z" style="fill: rgb(38, 50, 56); transform-origin: 121.495px 186.215px;" id="el87czgvba1xh" class="animable"></path><path d="M140.2,237.25s44.16,6.17,60.61,3.85,53-14.84,53-14.84-37.44-17.33-58.71-14.19-53.38,21.67-53.38,21.67Z" style="fill: #2C94E9; transform-origin: 197.005px 226.656px;" id="elx6498cg9tc8" class="animable"></path><path d="M235,225.33l-.24,0h-.71c-.62,0-1.55,0-2.73,0-2.38,0-5.81-.1-10-.24s-9.29-.33-14.89-.43c-2.8-.05-5.74-.06-8.78.06-1.52,0-3.06.17-4.61.36s-3.1.63-4.68,1c-6.35,1.31-12.45,2.25-18,3.19s-10.49,1.82-14.65,2.67-7.49,1.63-9.8,2.16l-2.66.63-.69.16-.24,0s.07,0,.22-.09l.68-.2,2.64-.73c2.3-.59,5.63-1.44,9.78-2.32s9.11-1.84,14.64-2.79,11.62-1.91,17.95-3.22c1.59-.33,3.13-.71,4.72-1s3.13-.31,4.66-.36c3.06-.11,6-.09,8.81,0,5.61.13,10.66.37,14.9.54l10,.4,2.73.1.71,0Z" style="fill: rgb(38, 50, 56); transform-origin: 188.66px 229.497px;" id="eld87peojh4mn" class="animable"></path><path d="M167.83,183.94s41.24,4.72,56.49,2.17,49-15.05,49-15.05-35.26-15.25-55-11.83-49.17,21.41-49.17,21.41Z" style="fill: #2C94E9; transform-origin: 220.575px 172.798px;" id="el2kv8ofbxv7b" class="animable"></path><path d="M255.78,170.64a5,5,0,0,1-.88.06c-.59,0-1.44.06-2.55.07-2.21,0-5.4,0-9.35,0s-8.65-.09-13.87,0c-2.61,0-5.35.07-8.17.25q-2.13.13-4.29.45c-1.41.26-2.86.65-4.33,1-5.88,1.37-11.53,2.39-16.65,3.39s-9.73,1.94-13.58,2.82-6.94,1.69-9.07,2.24l-2.46.64a7.1,7.1,0,0,1-.87.2,4.88,4.88,0,0,1,.84-.3l2.43-.74c2.13-.61,5.2-1.47,9.05-2.39s8.44-1.94,13.56-2.94,10.77-2.06,16.63-3.43c1.47-.34,2.89-.73,4.37-1s2.91-.36,4.33-.45c2.85-.17,5.59-.22,8.21-.22,5.22,0,9.92.09,13.87.15l9.35.15,2.54,0A5.48,5.48,0,0,1,255.78,170.64Z" style="fill: rgb(38, 50, 56); transform-origin: 212.745px 176.025px;" id="elf36z8d52p76" class="animable"></path><path d="M166.62,185.66s0-39.26-4-54.15S144,83.8,144,83.8s-9.55,34.81-4.35,54.06,24.31,49.53,24.31,49.53Z" style="fill: #2C94E9; transform-origin: 152.36px 135.595px;" id="elr542f17nnks" class="animable"></path><path d="M145.52,101a5.83,5.83,0,0,1,.16.87c.08.57.21,1.41.35,2.5.29,2.17.65,5.33,1.07,9.23s.89,8.54,1.52,13.68c.31,2.57.66,5.27,1.15,8,.24,1.38.52,2.78.89,4.18s.91,2.78,1.36,4.2c1.85,5.7,3.36,11.2,4.8,16.18s2.78,9.45,4,13.18,2.23,6.73,2.94,8.8l.84,2.39a4.86,4.86,0,0,1,.25.84,5.67,5.67,0,0,1-.35-.81l-.93-2.35c-.77-2-1.87-5-3.1-8.75S157.82,165,156.36,160s-3-10.46-4.83-16.15c-.46-1.43-1-2.79-1.37-4.22s-.66-2.84-.9-4.23c-.48-2.79-.82-5.5-1.12-8.07-.6-5.16-1-9.81-1.4-13.71l-.91-9.24c-.11-1.05-.19-1.89-.25-2.51A4.85,4.85,0,0,1,145.52,101Z" style="fill: rgb(38, 50, 56); transform-origin: 155.184px 143.025px;" id="el5arqkewomvi" class="animable"></path><path d="M174,173.76s29.72-27.56,37.42-41,19.4-47.44,19.4-47.44-34.14,17.62-44,35S172.9,173.3,172.9,173.3Z" style="fill: #2C94E9; transform-origin: 201.86px 129.54px;" id="eltv1inoo4bn" class="animable"></path><path d="M219.35,98.65a5.88,5.88,0,0,1-.51.72c-.36.47-.87,1.15-1.56,2-1.37,1.74-3.39,4.22-5.91,7.26s-5.55,6.63-8.83,10.7c-1.63,2-3.33,4.18-5,6.48-.83,1.15-1.62,2.35-2.36,3.6s-1.31,2.62-2,4c-2.66,5.42-5.46,10.43-7.93,15s-4.66,8.76-6.42,12.29-3.09,6.44-4,8.44c-.44,1-.8,1.74-1.06,2.31a4.17,4.17,0,0,1-.4.79,5.48,5.48,0,0,1,.31-.83c.23-.58.56-1.36,1-2.35.88-2,2.16-5,3.88-8.52s3.86-7.75,6.33-12.36,5.23-9.63,7.88-15c.67-1.35,1.27-2.7,2-4s1.56-2.48,2.4-3.64c1.66-2.31,3.37-4.46,5-6.49,3.3-4,6.36-7.62,8.92-10.63l6-7.14,1.63-2A5.62,5.62,0,0,1,219.35,98.65Z" style="fill: rgb(38, 50, 56); transform-origin: 196.36px 135.445px;" id="elqd8ne0ydt1a" class="animable"></path><g id="elvy3bfki2ad9"><path d="M118.19,288.16l-1.48,4s17.36,1.5,35.28,2L176.27,261C152.81,265.68,118.19,288.16,118.19,288.16Z" style="opacity: 0.1; transform-origin: 146.49px 277.58px;" class="animable" id="elupp9ufd2jp"></path></g><g id="elo6s0157fio"><path d="M100.69,341.77l-1.12,4.11s37.55,1.28,44.28-1.9L156,309.39C133.11,316.24,100.69,341.77,100.69,341.77Z" style="opacity: 0.1; transform-origin: 127.785px 327.762px;" class="animable" id="elluhm551r6gj"></path></g><g id="el8k2gehu0ebt"><path d="M87.41,395.71l-.83,4.17s37-.34,54.35-6.72l-.49-33.53C118,368,87.41,395.71,87.41,395.71Z" style="opacity: 0.1; transform-origin: 113.755px 379.755px;" class="animable" id="elyrasswp8ch"></path></g><g id="elqzsmc51nf0a"><path d="M141.72,233.74l-1.52,3.51s18.62,2.21,31.72,3.46l23.18-28.64C173.83,215.21,141.72,233.74,141.72,233.74Z" style="opacity: 0.1; transform-origin: 167.65px 226.39px;" class="animable" id="elq9yxbhlzetb"></path></g><g id="elcfg3tfzbv9a"><path d="M169.16,180.64l-1.33,3.3s10.78,1.24,23.36,2.1l27.14-26.81C198.61,162.64,169.16,180.64,169.16,180.64Z" style="opacity: 0.1; transform-origin: 193.08px 172.635px;" class="animable" id="elnfzuh5cek0n"></path></g><path d="M185.53,211.73c-2.75-1.88-6.44-1.51-9.61-.51-5.41,1.73-14.81,7.84-13.07,10.66,3.25,2.15,6.59,2,10.43,1.37a46.42,46.42,0,0,0,11-3.89,6.12,6.12,0,0,0,3.09-2.28C188.38,215.26,187.24,212.89,185.53,211.73Z" style="fill: rgb(224, 224, 224); transform-origin: 175.194px 217.027px;" id="el0sc5zypyqkqi" class="animable"></path><path d="M185.53,211.73s.05,0,.14.07a2.15,2.15,0,0,1,.38.27,5.45,5.45,0,0,1,1.17,1.33,4.27,4.27,0,0,1,.63,2.75,3.27,3.27,0,0,1-.77,1.63,5.53,5.53,0,0,1-1.59,1.21,67.91,67.91,0,0,1-8.9,3.71,29.54,29.54,0,0,1-5.6,1.13,13.18,13.18,0,0,1-6.12-.62,11.38,11.38,0,0,1-2.17-1.12l0,0,0-.05a1.91,1.91,0,0,1-.12-1.61,4.74,4.74,0,0,1,.72-1.33,12.72,12.72,0,0,1,2-2,31.71,31.71,0,0,1,4.33-3.05,27.81,27.81,0,0,1,8.18-3.42,11.4,11.4,0,0,1,5.91.15,5.19,5.19,0,0,1,1.91,1,10,10,0,0,0-2-.83,11.57,11.57,0,0,0-5.78,0,28,28,0,0,0-8,3.47,32.22,32.22,0,0,0-4.24,3,12.61,12.61,0,0,0-1.89,2c-.52.71-1,1.65-.57,2.36l-.08-.08a10.33,10.33,0,0,0,2.07,1.06,12.72,12.72,0,0,0,5.88.6,29.39,29.39,0,0,0,5.51-1.08,72.47,72.47,0,0,0,8.86-3.57,5.2,5.2,0,0,0,1.52-1.11,3,3,0,0,0,.73-1.46,4,4,0,0,0-.52-2.59A6.92,6.92,0,0,0,185.53,211.73Z" style="fill: rgb(38, 50, 56); transform-origin: 175.166px 217.13px;" id="elp6xa9i73n1o" class="animable"></path><path d="M184.18,214.14a4.8,4.8,0,0,0-2.53-1.93,4.56,4.56,0,0,0-3.09.24h0c-.32,1,2.45,1,3.33,1.88a4.47,4.47,0,0,0,1.6,1.25.87.87,0,0,0,.74-.06.73.73,0,0,0,.26-.68A1.57,1.57,0,0,0,184.18,214.14Z" style="fill: rgb(255, 255, 255); transform-origin: 181.517px 213.841px;" id="elhipwp5nf1pq" class="animable"></path><path d="M160.75,269.7a7.66,7.66,0,0,0-8.55,4.94,1.74,1.74,0,0,0,1,2.2c2.32.92,6.55-.26,9.07-1.32a3.71,3.71,0,0,0,1.59-1.07,2.66,2.66,0,0,0-.16-3.16A4.67,4.67,0,0,0,160.75,269.7Z" style="fill: rgb(224, 224, 224); transform-origin: 158.202px 273.376px;" id="eljz7sy8bt7h" class="animable"></path><path d="M160.75,269.7a3.16,3.16,0,0,1,1.23.24,4.52,4.52,0,0,1,1.3.72,3.25,3.25,0,0,1,1.1,1.66,2.61,2.61,0,0,1-.46,2.38,6.1,6.1,0,0,1-2.4,1.37,19.19,19.19,0,0,1-6,1.35,6.61,6.61,0,0,1-1.66-.13,4.86,4.86,0,0,1-.8-.24,2,2,0,0,1-.71-.53,2,2,0,0,1-.45-1.61,5.63,5.63,0,0,1,.58-1.41,7.65,7.65,0,0,1,3.72-3.4,7.4,7.4,0,0,1,3.36-.61,3.35,3.35,0,0,1,1.22.21c0,.05-.44,0-1.23,0a8.19,8.19,0,0,0-3.2.74,7.6,7.6,0,0,0-3.45,3.3,5.38,5.38,0,0,0-.51,1.26,1.47,1.47,0,0,0,.35,1.2,2,2,0,0,0,1.23.59,6,6,0,0,0,1.54.12,19.25,19.25,0,0,0,5.87-1.28,5.69,5.69,0,0,0,2.24-1.2,2.23,2.23,0,0,0,.43-2,3.48,3.48,0,0,0-2.12-2.28C161.19,269.82,160.74,269.75,160.75,269.7Z" style="fill: rgb(38, 50, 56); transform-origin: 158.183px 273.454px;" id="elcvjwpy23p8d" class="animable"></path><path d="M388.15,270.2s-43.2-5.6-58.1-12.05-46.12-27.69-46.12-27.69,39.77-6.64,59,1.82,44.69,34.22,44.69,34.22Z" style="fill: #2C94E9; transform-origin: 336.04px 249.091px;" id="eluolu8wd4yur" class="animable"></path><path d="M301.9,234.46a.67.67,0,0,1,.23,0l.68.15,2.6.61,9.56,2.22c4,.93,8.86,2,14.18,3.34,2.66.67,5.44,1.41,8.3,2.3,1.42.45,2.86,1,4.3,1.55s2.78,1.4,4.19,2.12c5.63,2.87,11.12,5.35,16.08,7.69s9.4,4.49,13.08,6.41,6.6,3.57,8.62,4.72L386,267l.59.37a.71.71,0,0,1,.19.14l-.22-.1-.61-.32-2.34-1.28c-2-1.1-5-2.71-8.69-4.57s-8.14-4-13.11-6.31-10.47-4.77-16.12-7.66c-1.4-.72-2.78-1.49-4.16-2.1s-2.83-1.1-4.25-1.54c-2.83-.9-5.61-1.64-8.26-2.32-5.31-1.36-10.11-2.47-14.14-3.45s-7.29-1.78-9.53-2.38c-1.12-.29-2-.54-2.57-.71l-.67-.2Z" style="fill: rgb(38, 50, 56); transform-origin: 344.34px 250.98px;" id="eldyceguuskc" class="animable"></path><g id="elck3utzlzcjt"><path d="M387.63,266.5l.52,3.7s-11.3-1.47-24.33-3.76l-20.89-34.16C362.17,240.73,387.63,266.5,387.63,266.5Z" style="opacity: 0.1; transform-origin: 365.54px 251.24px;" class="animable" id="elvcqa1r3hjx"></path></g><path d="M415.51,456.25c.09-80.23-10-139.83-35.53-215.9,0,0,26.91,97.11,31.2,169.82,1.26,21.34.5,24-.29,46.46Z" style="fill: #2C94E9; transform-origin: 397.745px 348.49px;" id="elbt7j0tf15k" class="animable"></path><path d="M411.74,393s-51.46-8.1-69.06-16.29-54.22-34.6-54.22-34.6,47.75-6.65,70.47,4.09,52.31,42.36,52.31,42.36Z" style="fill: #2C94E9; transform-origin: 350.1px 366.537px;" id="elnaqgjf9ht8l" class="animable"></path><path d="M309.8,347.45l.28.05.8.2,3.09.83,11.35,3c4.8,1.25,10.52,2.7,16.83,4.47,3.16.88,6.46,1.86,9.84,3q2.55.87,5.09,2c1.69.81,3.28,1.77,4.94,2.67,6.64,3.62,13.12,6.76,19,9.71s11.09,5.67,15.43,8.08,7.78,4.47,10.15,5.91l2.7,1.7.69.46c.16.1.24.16.23.17l-.25-.13-.73-.41-2.75-1.62c-2.4-1.38-5.86-3.4-10.22-5.75s-9.6-5.07-15.47-8-12.36-6.05-19-9.68c-1.66-.91-3.28-1.87-4.91-2.66s-3.35-1.4-5-2c-3.36-1.16-6.66-2.14-9.81-3-6.3-1.8-12-3.28-16.79-4.57s-8.66-2.36-11.32-3.14c-1.33-.38-2.36-.71-3.05-.93l-.79-.25Z" style="fill: rgb(38, 50, 56); transform-origin: 360.01px 368.575px;" id="elcfyujkjvocg" class="animable"></path><path d="M410.2,392.19s16.64-34.79,26.91-45.63,39.79-33.12,39.79-33.12-7.36,40.13-20.76,54-42.22,26.27-42.22,26.27Z" style="fill: #2C94E9; transform-origin: 443.55px 353.575px;" id="elo3idbybm76e" class="animable"></path><path d="M468.16,328.61a7.22,7.22,0,0,1-.43.75c-.3.48-.73,1.19-1.32,2.08-1.16,1.79-2.91,4.35-5.17,7.43s-5.05,6.68-8.3,10.55c-1.62,1.94-3.36,3.94-5.22,6s-3.86,4-5.75,6.26c-3.77,4.42-7.15,8.83-10.39,12.72s-6.29,7.26-9,9.95-5.08,4.71-6.72,6.07l-2,1.5a6.46,6.46,0,0,1-.7.5,5.26,5.26,0,0,1,.64-.58l1.88-1.58c1.6-1.41,3.93-3.43,6.59-6.17s5.7-6.1,8.9-10,6.58-8.31,10.37-12.75c1.89-2.23,3.91-4.25,5.76-6.27s3.61-4,5.24-5.93c3.26-3.85,6.08-7.41,8.37-10.46s4.08-5.57,5.29-7.32l1.4-2A4.42,4.42,0,0,1,468.16,328.61Z" style="fill: rgb(38, 50, 56); transform-origin: 440.66px 360.515px;" id="elnmgllxvfejl" class="animable"></path><path d="M398.5,323s18.48-41.67,30-55.45,44.25-39.65,44.25-39.65-6.7,43.62-21.75,61.35-48.86,38-48.86,38Z" style="fill: #2C94E9; transform-origin: 435.625px 277.575px;" id="eler2q607tfam" class="animable"></path><path d="M463,246a1,1,0,0,1-.14.22l-.43.63-1.73,2.38-6.5,8.66-9.7,12.8c-3.64,4.82-7.61,10.13-11.62,15.84-8.16,11.34-16.21,21.09-22,28.14l-6.94,8.3L402,325.21l-.5.57c-.12.13-.18.19-.19.18a.75.75,0,0,1,.15-.21l.46-.61,1.84-2.3,6.81-8.42c5.74-7.11,13.74-16.88,21.89-28.2,4-5.7,8-11,11.66-15.83s7-9.1,9.79-12.73l6.62-8.56,1.81-2.32.48-.6C463,246.05,463,246,463,246Z" style="fill: rgb(38, 50, 56); transform-origin: 432.155px 285.981px;" id="elrakdgdc1gbb" class="animable"></path><path d="M401.66,331.12s-46.55-4.85-62.72-11.36-50.26-28.49-50.26-28.49,42.52-8.21,63.4.35S401,327.16,401,327.16Z" style="fill: #2C94E9; transform-origin: 345.17px 309.421px;" id="elddpkpzk0ggd" class="animable"></path><path d="M308.08,295.07a.79.79,0,0,1,.25,0l.73.15,2.81.59L322.19,298c4.36.89,9.57,1.92,15.31,3.21,2.88.64,5.89,1.36,9,2.25q2.32.66,4.66,1.54c1.56.65,3,1.43,4.56,2.17,6.12,2.93,12.09,5.44,17.48,7.81s10.21,4.58,14.21,6.53,7.19,3.65,9.38,4.83l2.5,1.41.65.37.21.15a.89.89,0,0,1-.24-.1l-.67-.33-2.54-1.32c-2.22-1.12-5.42-2.77-9.45-4.67s-8.84-4.1-14.25-6.43-11.37-4.84-17.5-7.79c-1.54-.73-3-1.52-4.53-2.15s-3.07-1.09-4.61-1.53c-3.07-.89-6.07-1.62-8.93-2.27-5.74-1.32-10.93-2.38-15.28-3.32s-7.87-1.71-10.3-2.29c-1.21-.28-2.15-.53-2.78-.69l-.72-.2A.75.75,0,0,1,308.08,295.07Z" style="fill: rgb(38, 50, 56); transform-origin: 354.115px 311.665px;" id="elfagutnky808" class="animable"></path><path d="M386.88,267.25s11.44-39.58,19.74-53.46,32.71-42.68,32.71-42.68S438.85,209,428,226.9s-38.9,42.88-38.9,42.88Z" style="fill: #2C94E9; transform-origin: 413.105px 220.445px;" id="el7spzcc6q276" class="animable"></path><path d="M432.76,188a.92.92,0,0,1-.07.22l-.25.65c-.24.6-.57,1.42-1,2.46l-3.61,9.05c-1.52,3.83-3.29,8.39-5.4,13.42-1.05,2.51-2.18,5.13-3.47,7.81-.65,1.33-1.35,2.67-2.14,4s-1.73,2.56-2.6,3.87c-3.51,5.19-6.65,10.29-9.57,14.88s-5.61,8.7-7.94,12.09-4.3,6.08-5.67,7.93l-1.62,2.11L389,267a1.22,1.22,0,0,1-.16.18A1.58,1.58,0,0,1,389,267l.39-.57,1.53-2.16c1.32-1.88,3.25-4.6,5.53-8s5-7.52,7.84-12.13,6-9.71,9.55-14.93c.87-1.3,1.8-2.56,2.59-3.84s1.47-2.63,2.12-4c1.29-2.65,2.43-5.27,3.49-7.77,2.13-5,3.94-9.56,5.5-13.37s2.84-6.88,3.76-9c.45-1.06.83-1.87,1.08-2.42l.29-.63C432.71,188,432.75,188,432.76,188Z" style="fill: rgb(38, 50, 56); transform-origin: 410.8px 227.59px;" id="elrwspv4iao5" class="animable"></path><path d="M384.61,257.87s-26.05-35.17-30.51-50.78S342.93,143,342.93,143s36.08,37.06,41.73,57.3.79,57.4.79,57.4Z" style="fill: #2C94E9; transform-origin: 365.162px 200.435px;" id="elim9k1czcc0k" class="animable"></path><path d="M357,170a.88.88,0,0,1,.12.21c.09.16.19.37.32.61q.42.89,1.17,2.4l4.34,8.81c1.84,3.71,4.06,8.12,6.4,13.08,1.17,2.48,2.36,5.1,3.47,7.88.57,1.38,1.08,2.82,1.53,4.3s.69,3,1,4.59c1.34,6.18,2.91,12,4.25,17.31s2.48,10.13,3.32,14.19,1.43,7.36,1.81,9.65c.17,1.11.3,2,.4,2.64l.09.69a1.09,1.09,0,0,1,0,.24,1,1,0,0,1-.07-.23c0-.19-.08-.41-.14-.68-.12-.65-.28-1.52-.49-2.63-.44-2.27-1.06-5.56-2-9.61s-2.05-8.84-3.43-14.14-2.94-11.13-4.29-17.32c-.33-1.54-.61-3.1-1-4.55s-.95-2.89-1.51-4.26c-1.1-2.77-2.28-5.39-3.44-7.87-2.31-5-4.5-9.39-6.29-13.12s-3.24-6.77-4.2-8.88c-.48-1-.84-1.88-1.08-2.44l-.27-.64C357,170,357,170,357,170Z" style="fill: rgb(38, 50, 56); transform-origin: 371.113px 213.3px;" id="elclejkp8h0wv" class="animable"></path><path d="M371,360.75a8,8,0,0,1,9,5.15,1.81,1.81,0,0,1-1,2.31c-2.43,1-6.87-.24-9.51-1.35a4,4,0,0,1-1.68-1.11,2.83,2.83,0,0,1,.15-3.33A4.94,4.94,0,0,1,371,360.75Z" style="fill: rgb(250, 250, 250); transform-origin: 373.728px 364.595px;" id="elrgos7ue88o" class="animable"></path><g id="el5hwwufcrdv3"><path d="M411.24,388.54l.5,4.44s-18.06-2.84-36.45-6.86l-16.36-39.94C381.64,356.92,411.24,388.54,411.24,388.54Z" style="opacity: 0.1; transform-origin: 385.335px 369.58px;" class="animable" id="elyw1kp0tt8ak"></path></g><g id="el6pig6npki9b"><path d="M401,327.16l.67,4s-19.53-2.44-33.19-4.47l-16.39-35C373,300.19,401,327.16,401,327.16Z" style="opacity: 0.1; transform-origin: 376.88px 311.425px;" class="animable" id="elzk5rtf3eq6"></path></g><path d="M351.34,236.31a11.3,11.3,0,0,1,10.35-.68c6.11,2.39,10.9,9.07,10.47,11.39-.76,3-3.93,3.71-8.31,2.66s-8.41-3.17-12.39-5.28a7.08,7.08,0,0,1-3.39-2.86C347.05,239.38,349.28,237.53,351.34,236.31Z" style="fill: rgb(224, 224, 224); transform-origin: 360.001px 242.412px;" id="elhtwtzrm19ls" class="animable"></path><path d="M351.34,236.31c0,.05-.75.45-1.9,1.47a4.37,4.37,0,0,0-1.44,2.28,3.32,3.32,0,0,0,1.6,3,35.54,35.54,0,0,0,3.95,2.19c1.45.75,3,1.52,4.69,2.25a34.74,34.74,0,0,0,5.41,1.86,16.19,16.19,0,0,0,3,.49,7.59,7.59,0,0,0,3-.33,3.47,3.47,0,0,0,2.08-1.94,3.28,3.28,0,0,0,.22-.67,2.18,2.18,0,0,0,0-.67,5.67,5.67,0,0,0-.46-1.37,17.63,17.63,0,0,0-3.33-4.58,18.26,18.26,0,0,0-8.11-5,11.05,11.05,0,0,0-6.41.12c-1.47.48-2.19,1-2.22.92a2.32,2.32,0,0,1,.52-.35,9.52,9.52,0,0,1,1.63-.76,10.92,10.92,0,0,1,6.57-.28,18.26,18.26,0,0,1,8.36,5,17.49,17.49,0,0,1,3.45,4.7,6.38,6.38,0,0,1,.51,1.49c0,.13.05.26.06.41l0,.44a4.27,4.27,0,0,1-.25.79,4,4,0,0,1-2.38,2.21,7.89,7.89,0,0,1-3.21.37,17.82,17.82,0,0,1-3.05-.51,34.6,34.6,0,0,1-5.48-1.92c-1.69-.75-3.25-1.54-4.7-2.3a33.47,33.47,0,0,1-4-2.29,4.89,4.89,0,0,1-1.35-1.53,2.8,2.8,0,0,1-.32-1.81,4.48,4.48,0,0,1,1.6-2.38,10.51,10.51,0,0,1,1.47-1A2.47,2.47,0,0,1,351.34,236.31Z" style="fill: rgb(38, 50, 56); transform-origin: 360.132px 242.473px;" id="elquh8ill0s6" class="animable"></path><path d="M358.24,237l-.18-.11a8.43,8.43,0,0,0-7.68,2.08,1.51,1.51,0,0,0-.3.36,1,1,0,0,0,.1,1.06,1.75,1.75,0,0,0,.9.63,2.76,2.76,0,0,0,1.68.05c1-.3,1.82-1.15,2.86-1.38a15.56,15.56,0,0,1,1.81-.1,1.39,1.39,0,0,0,.81-2.59Z" style="fill: rgb(255, 255, 255); transform-origin: 354.455px 238.925px;" id="elgcyvgbfmjd" class="animable"></path></g><g id="freepik--Splash--inject-29" class="animable" style="transform-origin: 250.905px 411.776px;"><path d="M479.82,447.67c-3.75.85-7.54,1.54-11.34,2.07-5.88.82-12.05,1.23-17.58-.92-6.06-2.35-11.06-7.63-17.54-8.19-6.17-.53-11.74,3.4-17.67,5.17a26.19,26.19,0,0,1-14.37.16c-2.45-.67-4.8-1.7-7.26-2.34a23.88,23.88,0,0,0-13.95.63c-3.07,1.11-5.9,2.84-9.05,3.7-3.61,1-7.44.75-11.16.33a14.39,14.39,0,0,1-5.5-1.42c-7.47-4.18-.59-18.71,1.6-24.3,2.94-7.48,6.35-15.51,13.32-19.52,2.7-1.55,6.44-4.17,4.71-6.76-1.25-1.87-4.16-1.21-6.08,0-5.18,3.16-11.68,10.82-12.6,16.82-2.44-6.66,2.92-10.07.61-11.16-5.16-.74-4,6.45-5.95,9.67-4,6.45-8,12.94-12.95,18.65A58.24,58.24,0,0,1,317.74,445a100.43,100.43,0,0,1-16.64,5.41L296,451.77a14.23,14.23,0,0,1-6.82-17.57c.93-2.26,2.47-4.36,2.61-6.79s-2.23-5.18-4.44-4.16c-3.34,1.55-.18,7.21-2.31,10.22-1.51,2.12-4.82,1.71-7.12.5s-4.49-3-7.09-3.05c-2.81,0-5.19,2-7,4.17s-3.48,4.59-6,5.81-6.26.54-7.11-2.14c-.78-2.46,1.2-4.85,2.05-7.29s-1.06-6.24-3.31-5-.08,5.14-1.26,7.55-4.69,1.89-7.21,1c-10.56-3.67-21.25-7.4-30.51-13.67S193.39,406,191.22,395c-.49-2.5-1.09-5.57-3.52-6.33-1.41-.44-2.91.13-4.35.45A13.88,13.88,0,0,1,167.9,381c-1.11-2.81-1.33-6.07-3.27-8.39s-6.72-2.3-7.13.69c-.53,3.8,6.37,5.47,5.83,9.27-.31,2.23-3.31,3.18-5.37,2.27s-3.35-3-4.51-4.89l-19.06-31.77c-1.17-1.95-3-4.19-5.2-3.68-3.22.76-2.5,5.61-.89,8.5,9.87,17.8,25.07,43,34.12,64.22l.49,1.15c2.1,5.24,4.74,13-.3,17.9-14.13,13.8-23.84-1.52-38.25,1.24-3.81.73-15.39,5.92-31.52,2-4.7-1.15-9.29-2.81-14.06-3.58-18.92-3-38.11,9.29-56.8,5.07,0,0,35.24,0,46.88,10.83s158.5,30,230.6,27.3S479.82,447.67,479.82,447.67Z" style="fill: rgb(235, 235, 235); transform-origin: 250.9px 411.907px;" id="el5ovmnjm007j" class="animable"></path><path d="M22,440.94l2.2.35,1.22.2c.46.05,1,.08,1.5.12l1.76.12c.63.06,1.31,0,2,0a60.27,60.27,0,0,0,10.55-1.08c4.14-.72,8.84-1.88,14.17-3.07s11.32-2.44,18-2.28a41.13,41.13,0,0,1,10.28,1.49c3.49.88,7,2.1,10.83,2.86a50.51,50.51,0,0,0,11.91,1.07,55.25,55.25,0,0,0,12.59-2c1.06-.28,2.12-.59,3.19-.91a21.07,21.07,0,0,1,3.3-.74,21.6,21.6,0,0,1,6.89.29c4.61.86,9,3,13.69,4a16.66,16.66,0,0,0,7.27.08,17.24,17.24,0,0,0,6.66-3.28c1.94-1.58,4-3.3,4.74-5.82a11.55,11.55,0,0,0,.55-3.8,19.75,19.75,0,0,0-.51-3.89,43.68,43.68,0,0,0-2.61-7.59c-.54-1.24-1.09-2.49-1.65-3.74l-1.73-3.75c-2.36-5-4.91-10-7.58-15.1C145.87,384.41,140,374.1,134,363.48q-2.27-4-4.54-8a28.91,28.91,0,0,1-2.13-4.19,8.66,8.66,0,0,1-.4-4.76,3.13,3.13,0,0,1,1.5-2,3.44,3.44,0,0,1,1.22-.36,3.34,3.34,0,0,1,1.26.17,5.25,5.25,0,0,1,2,1.4,11.86,11.86,0,0,1,1.47,1.93l5,8.25,10.08,16.79c1.7,2.82,3.39,5.7,5.14,8.52a8.77,8.77,0,0,0,3.47,3.34,4.13,4.13,0,0,0,4.42-.75,2.55,2.55,0,0,0,.57-1,1.83,1.83,0,0,0,.08-.57,1.89,1.89,0,0,0,0-.58,4.06,4.06,0,0,0-1.15-2.06c-1.13-1.22-2.58-2.15-3.71-3.52a3.86,3.86,0,0,1-1-2.49,2.69,2.69,0,0,1,1.3-2.35,4.33,4.33,0,0,1,2.62-.58,5.62,5.62,0,0,1,2.55.8,5.21,5.21,0,0,1,1.84,1.95,12.69,12.69,0,0,1,1.06,2.42c.55,1.66.88,3.37,1.51,5a13.76,13.76,0,0,0,12,8.32,11.28,11.28,0,0,0,1.3,0,9.14,9.14,0,0,0,1.28-.16c.85-.12,1.69-.42,2.58-.58a4.66,4.66,0,0,1,2.76.16,4.17,4.17,0,0,1,2,1.91,19.33,19.33,0,0,1,1.52,5.18,34.18,34.18,0,0,0,3.9,9.88,43.13,43.13,0,0,0,6.52,8.54,62.5,62.5,0,0,0,17.78,12.44,184.46,184.46,0,0,0,20.6,8.13,14.38,14.38,0,0,0,3.67.9,4.14,4.14,0,0,0,3.38-.91,4.22,4.22,0,0,0,.75-3.43c0-.63-.13-1.27-.16-1.92a4,4,0,0,1,.32-2,2.32,2.32,0,0,1,1.68-1.23,2.19,2.19,0,0,1,1.92.79,5.16,5.16,0,0,1,1.21,3.74,5.75,5.75,0,0,1-.57,1.9c-.26.58-.55,1.15-.82,1.72a8.21,8.21,0,0,0-1,3.5,3.36,3.36,0,0,0,1.71,2.89,5.54,5.54,0,0,0,3.49.61,6.58,6.58,0,0,0,3.26-1.49,17.48,17.48,0,0,0,2.61-2.62c1.57-1.91,3.11-4,5.32-5.33a7,7,0,0,1,3.67-1.07,8.38,8.38,0,0,1,3.65,1.08c2.21,1.15,4.18,2.78,6.61,2.94a4.2,4.2,0,0,0,3.26-.88,4.35,4.35,0,0,0,1.19-3.15c0-1.2-.1-2.41-.13-3.65a8,8,0,0,1,.16-1.88,3.11,3.11,0,0,1,1-1.68,2.83,2.83,0,0,1,1.85-.65,3.16,3.16,0,0,1,1.81.72,5,5,0,0,1,1.77,3.28,7.82,7.82,0,0,1-.76,3.63c-.48,1.12-1.08,2.17-1.57,3.25a13.12,13.12,0,0,0-1.09,6.85,14.06,14.06,0,0,0,7.51,11l-.17,0c7-1.89,14.08-3.43,20.58-6.23a55.82,55.82,0,0,0,17.12-11.76,90.5,90.5,0,0,0,12.42-16q1.34-2.11,2.65-4.23c.42-.7.9-1.41,1.27-2.11a9.11,9.11,0,0,0,.79-2.27,33,33,0,0,1,1.21-4.79,4,4,0,0,1,1.54-2,3.91,3.91,0,0,1,2.5-.41h0l0,0a1.25,1.25,0,0,1,.65.63,1.47,1.47,0,0,1,0,.88,8.78,8.78,0,0,1-.55,1.44,17,17,0,0,0-1,2.74,9.52,9.52,0,0,0,.38,5.59l-.44,0a18.22,18.22,0,0,1,2.19-5.75,32.53,32.53,0,0,1,3.49-5,35.54,35.54,0,0,1,4.26-4.24,23.19,23.19,0,0,1,2.4-1.77,8.22,8.22,0,0,1,2.73-1.23,4.35,4.35,0,0,1,3,.19,2.76,2.76,0,0,1,1.47,2.6,4.41,4.41,0,0,1-1.44,2.61,13.7,13.7,0,0,1-2.28,1.82c-.8.53-1.65,1-2.43,1.5a20.58,20.58,0,0,0-2.23,1.71,24.28,24.28,0,0,0-3.68,4.17,50.36,50.36,0,0,0-5.11,9.71l-2,5c-.68,1.65-1.35,3.3-2,5a34.55,34.55,0,0,0-2.32,10.07,9.6,9.6,0,0,0,.93,4.87,6.29,6.29,0,0,0,3.7,3,21.7,21.7,0,0,0,4.81.88,43.91,43.91,0,0,0,4.84.28,22.41,22.41,0,0,0,4.71-.49,23.09,23.09,0,0,0,4.4-1.51c2.82-1.27,5.6-2.68,8.58-3.24A24,24,0,0,1,392,443a51.73,51.73,0,0,1,8.12,2.42,26.12,26.12,0,0,0,15.51.24,71.39,71.39,0,0,0,6.84-2.66,34.86,34.86,0,0,1,6.62-2.23,14.4,14.4,0,0,1,6.57.12c4.18,1.13,7.44,3.6,10.63,5.46a29.93,29.93,0,0,0,4.76,2.4,23.27,23.27,0,0,0,4.75,1.23,37.35,37.35,0,0,0,8.53.15c5.1-.47,9-1.2,11.56-1.68l3.94-.8s-1.33.34-3.92.87-6.46,1.25-11.57,1.75a37.5,37.5,0,0,1-8.56-.12A23,23,0,0,1,451,449a32.08,32.08,0,0,1-4.8-2.4c-3.2-1.86-6.46-4.31-10.57-5.41a14.25,14.25,0,0,0-6.47-.1,34.84,34.84,0,0,0-6.57,2.22,67.92,67.92,0,0,1-6.86,2.68,26.36,26.36,0,0,1-15.68-.21,51.59,51.59,0,0,0-8.08-2.39,23.57,23.57,0,0,0-8.69.21,39.06,39.06,0,0,0-8.51,3.22,20.74,20.74,0,0,1-9.25,2.05,44.49,44.49,0,0,1-4.88-.28,21.52,21.52,0,0,1-4.9-.89,6.7,6.7,0,0,1-3.91-3.18,10,10,0,0,1-1-5.05,34.79,34.79,0,0,1,2.33-10.2c.6-1.66,1.27-3.32,1.95-5l2-5a50.14,50.14,0,0,1,5.14-9.8,24.3,24.3,0,0,1,3.75-4.24,18.51,18.51,0,0,1,2.27-1.75c.81-.53,1.64-1,2.43-1.51a13.45,13.45,0,0,0,2.21-1.76,4,4,0,0,0,1.31-2.34,2.37,2.37,0,0,0-1.24-2.19,3.93,3.93,0,0,0-2.71-.15,7.83,7.83,0,0,0-2.6,1.18,21.94,21.94,0,0,0-2.35,1.74,34.63,34.63,0,0,0-4.2,4.19,32.1,32.1,0,0,0-3.44,4.89,17.73,17.73,0,0,0-2.13,5.6l-.14.83-.3-.79a10,10,0,0,1-.39-5.84,16.32,16.32,0,0,1,1-2.82,10,10,0,0,0,.53-1.36.75.75,0,0,0-.42-1l.07,0a3.57,3.57,0,0,0-2.2.35,3.62,3.62,0,0,0-1.36,1.81,36.18,36.18,0,0,0-1.18,4.72,10,10,0,0,1-.82,2.38c-.41.75-.86,1.42-1.29,2.14-.88,1.41-1.77,2.82-2.65,4.24A91.5,91.5,0,0,1,334,433.89a56.52,56.52,0,0,1-17.26,11.87c-6.57,2.82-13.64,4.36-20.65,6.25l-.09,0-.09,0a14.56,14.56,0,0,1-7.79-11.42,13.52,13.52,0,0,1,1.13-7.12c.5-1.11,1.1-2.15,1.56-3.24a7.37,7.37,0,0,0,.73-3.38,4.45,4.45,0,0,0-1.59-2.93,2.64,2.64,0,0,0-1.51-.61,2.28,2.28,0,0,0-1.5.53,3.91,3.91,0,0,0-.95,3.16c0,1.2.17,2.43.12,3.68a4.86,4.86,0,0,1-1.36,3.51,4.64,4.64,0,0,1-3.64,1,9.12,9.12,0,0,1-3.6-1.15c-1.09-.6-2.12-1.28-3.21-1.84a7.76,7.76,0,0,0-3.42-1,6.43,6.43,0,0,0-3.39,1c-2.11,1.26-3.6,3.29-5.2,5.22a17.54,17.54,0,0,1-2.68,2.7,7.1,7.1,0,0,1-3.51,1.59,5.93,5.93,0,0,1-3.82-.68,3.84,3.84,0,0,1-2-3.32c0-2.75,2.07-4.81,2.42-7.18a4.64,4.64,0,0,0-1.08-3.34,1.63,1.63,0,0,0-1.46-.62,1.83,1.83,0,0,0-1.29.94,3.71,3.71,0,0,0-.26,1.75c0,.62.11,1.25.16,1.9a8.22,8.22,0,0,1,0,2,3.49,3.49,0,0,1-.87,1.85,3.45,3.45,0,0,1-1.81,1,6.69,6.69,0,0,1-2,.11,14.85,14.85,0,0,1-3.81-.93,185.37,185.37,0,0,1-20.65-8.16,62.77,62.77,0,0,1-17.92-12.54,43.81,43.81,0,0,1-6.59-8.64,34.54,34.54,0,0,1-4-10,19,19,0,0,0-1.47-5,3.61,3.61,0,0,0-1.77-1.68,4.11,4.11,0,0,0-2.46-.14c-.85.16-1.69.46-2.59.58a8.62,8.62,0,0,1-1.34.17,12.16,12.16,0,0,1-1.35,0,13.66,13.66,0,0,1-5.19-1.23,13.87,13.87,0,0,1-7.31-7.41c-.65-1.65-1-3.37-1.52-5a11.75,11.75,0,0,0-1-2.32,4.75,4.75,0,0,0-1.66-1.78,4.67,4.67,0,0,0-4.64-.22,2.2,2.2,0,0,0-1.07,1.93,3.37,3.37,0,0,0,.85,2.17c1,1.28,2.5,2.22,3.69,3.49a4.7,4.7,0,0,1,1.27,2.32,3.39,3.39,0,0,1-.06,1.37,3.12,3.12,0,0,1-.69,1.18,4.58,4.58,0,0,1-5,.86,9.18,9.18,0,0,1-3.68-3.52c-1.78-2.86-3.44-5.71-5.15-8.54l-10.08-16.8q-2.47-4.14-4.94-8.23a7.29,7.29,0,0,0-3.25-3.14,2.81,2.81,0,0,0-1.07-.15,2.91,2.91,0,0,0-1,.31,2.59,2.59,0,0,0-1.26,1.68,8.06,8.06,0,0,0,.38,4.47,28.48,28.48,0,0,0,2.09,4.12l4.54,8c6,10.63,11.9,20.94,17.24,31.1,2.67,5.08,5.22,10.12,7.58,15.13l1.73,3.75,1.65,3.75a45.31,45.31,0,0,1,2.63,7.66,20.55,20.55,0,0,1,.51,4,12.18,12.18,0,0,1-.58,3.94,10.93,10.93,0,0,1-.8,1.82,10.8,10.8,0,0,1-1.19,1.57,25.14,25.14,0,0,1-2.88,2.6,17.55,17.55,0,0,1-6.82,3.35,17,17,0,0,1-7.42-.09c-4.81-1.06-9.13-3.19-13.68-4a21.24,21.24,0,0,0-6.78-.3,20,20,0,0,0-3.26.73c-1.07.31-2.13.62-3.2.9a55.26,55.26,0,0,1-12.66,2,51,51,0,0,1-12-1.09c-3.81-.78-7.36-2-10.84-2.89a41.16,41.16,0,0,0-10.22-1.5c-6.64-.18-12.63,1.11-18,2.23s-10,2.31-14.18,3a59,59,0,0,1-10.58,1c-.71,0-1.39,0-2,0l-1.77-.14c-.54-.05-1-.08-1.5-.13l-1.22-.22Z" style="fill: rgb(38, 50, 56); transform-origin: 250.915px 398.087px;" id="elc3cfriufk85" class="animable"></path></g><g id="freepik--drops-2--inject-29" class="animable" style="transform-origin: 263.443px 225.771px;"><path d="M413.33,63.18s-22.37,32-28,42.41c-3.95,7.27-10.85,23.18.25,42.09,9.3,15.85,21.94,16.78,31.06,16.78,12.82,0,31.56-12.78,31.56-37.29,0,0-.34-13.57-6.41-22.64-4.69-7-27.46-42.62-27.46-42.62Z" style="fill: rgb(245, 245, 245); transform-origin: 413.879px 113.185px;" id="elkc2nof4va99" class="animable"></path><path d="M445.49,127.69s-.32-12.57-5.94-21c-4.31-6.44-25.14-39-25.4-39.44-2.27,3-2.28,7.51-1.71,11.45,1,7,3.17,13.73,5.05,20.51S421,113,420.89,120.1s-2.13,14.36-6.69,19.45a19.69,19.69,0,0,1-14.51,6.63c-5.39,0-11.73-2.37-15.48-6.56a40.73,40.73,0,0,0,3.31,7c8.6,14.68,20.31,15.54,28.75,15.54C428.14,162.21,445.49,150.37,445.49,127.69Z" style="fill: rgb(224, 224, 224); transform-origin: 414.85px 114.705px;" id="el9p17ak2yync" class="animable"></path><path d="M436.25,115.31c.76-.36,2.67,1.87,3.9,6.45a30.48,30.48,0,0,1-1.2,18.38,27.66,27.66,0,0,1-11.33,13.79c-3.89,2.25-6.7,2.33-7,1.49s1.66-2.59,4.33-5.45A39.54,39.54,0,0,0,433,137.45a42.22,42.22,0,0,0,2.63-15C435.69,118.41,435.38,115.68,436.25,115.31Z" style="fill: rgb(255, 255, 255); transform-origin: 430.813px 135.592px;" id="elg2lz3mzfnjd" class="animable"></path><path d="M436.45,110.88a2.19,2.19,0,1,1-2.18-2.36A2.27,2.27,0,0,1,436.45,110.88Z" style="fill: rgb(255, 255, 255); transform-origin: 434.264px 110.71px;" id="el9evl8k2tbdn" class="animable"></path><path d="M395.71,104.22c.92.6.69,2.64,0,5.49s-1.72,6.55-2.68,10.68-1.61,7.91-2.24,10.78-1.32,4.78-2.41,4.93-2.33-1.63-3.11-4.82a24.6,24.6,0,0,1-.65-5.68A31.46,31.46,0,0,1,387.76,112a24.37,24.37,0,0,1,3.05-4.84C392.91,104.66,394.84,103.63,395.71,104.22Z" style="fill: rgb(255, 255, 255); transform-origin: 390.468px 120.083px;" id="elz31cz4oq84i" class="animable"></path><g id="elyuzfi7eo19o"><path d="M409.39,101.32c4.39-.87,10.45-6.25,10.45-6.25a105.15,105.15,0,0,0-11.46,1c-2.77.56-8.53,3.25-10.57,4.23.54-.81,1.07-1.62,1.59-2.44,1.56-1,6.69-4.63,8.82-7.76,2.53-3.72,2.68-12.34,2.68-12.34s-5.69,5.74-7.63,8.62S398.75,98,398.75,98l.05,0c-.28.37-.6.76-.93,1.18.12-1.66.49-7.89-.61-11.61-.06-.19-.14-.39-.21-.58-1.37,2-2.71,4.08-4,6,1.6,3,3.66,6.26,4.14,7-1.95,2.47-4.48,5.63-7.26,9a47,47,0,0,0-.64-10.18c-1.54,2.44-2.84,4.58-3.76,6.25,1.3,2.17,2.64,4.22,3.32,5.24-2.41,2.95-5,6-7.48,8.95.11-1.23.25-3.25.28-5.47a42.33,42.33,0,0,0-1.61,6.48l.19.31L380,121c-.09.57-.15,1.14-.21,1.73.36-.38.74-.75,1.1-1.14l.08.18s8.16,4.41,13.5,5,14.57-4,14.57-4-9.22-2.87-13.35-3.33c-3.31-.38-11,.74-14,1.2q4.26-4.58,8.14-9.46v.14s8.84,2.8,14.2,2.43,13.58-6.61,13.58-6.61-9.6-1.1-13.74-.79c-3.32.25-10.29,2.52-12.91,3.41,2.14-2.76,4.2-5.59,6.15-8.49C397.93,101.44,405.26,102.14,409.39,101.32Z" style="fill: #2C94E9; opacity: 0.1; transform-origin: 399.815px 102.291px;" class="animable" id="elk2ae3iywir"></path></g><g id="ely276rnotfd"><path d="M446.29,115a91.8,91.8,0,0,0-13.39,7.44s7.85,1.27,15.08,2A59,59,0,0,0,446.29,115Z" style="fill: #2C94E9; opacity: 0.1; transform-origin: 440.44px 119.72px;" class="animable" id="elrs1pxwtgop"></path></g><g id="elyu34bn8h7"><path d="M441.22,141.75s1.63.35,4.11.85a38,38,0,0,0,1.3-3.86C443.39,140.43,441.22,141.75,441.22,141.75Z" style="fill: #2C94E9; opacity: 0.1; transform-origin: 443.925px 140.67px;" class="animable" id="el0jyomyx6hho8"></path></g><g id="el0094kp2aumnae"><path d="M434.39,93.21a83.67,83.67,0,0,0-13.85,7.09s13,2.44,20.28,2.81C439.33,100.85,437,97.3,434.39,93.21Z" style="fill: #2C94E9; opacity: 0.1; transform-origin: 430.68px 98.16px;" class="animable" id="el6msnu5aqnri"></path></g><path d="M413.33,63.18s.18-.28.95-1.29l0,0,0,0c2,3,10.55,16.16,23.1,35.56q2.35,3.64,4.88,7.58a35.77,35.77,0,0,1,3.89,8.86,59.27,59.27,0,0,1,2,10.09c.09.87.17,1.76.22,2.65s-.06,1.79-.08,2.7-.05,1.81-.17,2.72-.27,1.82-.4,2.73a20.07,20.07,0,0,1-.57,2.73c-.25.9-.42,1.83-.74,2.72s-.64,1.79-1,2.68-.8,1.74-1.19,2.62a37,37,0,0,1-6.8,9.56,35.56,35.56,0,0,1-9.91,7c-.92.47-1.91.77-2.87,1.17s-2,.59-3,.88-2.05.42-3.11.48a30.24,30.24,0,0,1-3.15.11,39.51,39.51,0,0,1-13.28-2.05,29,29,0,0,1-10.94-7.07A40,40,0,0,1,384,145.27a43.53,43.53,0,0,1-4-11.4,39.79,39.79,0,0,1,2.18-22,56.3,56.3,0,0,1,4.52-9.06c1.66-2.79,3.35-5.4,5-7.9,6.48-9.94,12-17.84,15.74-23.3l4.38-6.26,1.16-1.62c.26-.36.41-.54.41-.54s-.12.2-.37.57l-1.11,1.65c-1,1.46-2.45,3.58-4.31,6.32-3.72,5.49-9.15,13.42-15.59,23.38-1.6,2.5-3.28,5.12-4.93,7.9a56.82,56.82,0,0,0-4.46,9,39.36,39.36,0,0,0-2.1,21.77,43,43,0,0,0,4,11.26,39.7,39.7,0,0,0,7.15,10.19,28.53,28.53,0,0,0,10.76,6.94,39,39,0,0,0,13.1,2,29.2,29.2,0,0,0,3.11-.11c1-.06,2-.32,3-.47s2-.52,2.94-.86,1.92-.69,2.82-1.15a34.83,34.83,0,0,0,9.76-6.87,36.58,36.58,0,0,0,6.72-9.42c.39-.87.87-1.69,1.18-2.58l1-2.65c.32-.88.48-1.8.73-2.69a19.22,19.22,0,0,0,.57-2.69c.13-.91.27-1.81.4-2.7s.11-1.8.17-2.69.14-1.79.08-2.66-.12-1.76-.21-2.62a58,58,0,0,0-1.93-10,35.17,35.17,0,0,0-3.81-8.77l-4.85-7.58C424.63,78.22,416.2,65,414.27,61.92h.06C413.55,62.93,413.33,63.18,413.33,63.18Z" style="fill: rgb(38, 50, 56); transform-origin: 413.86px 113.313px;" id="el62km2dnjimt" class="animable"></path><path d="M441.21,143.76a2.49,2.49,0,0,1-.17.52,15.35,15.35,0,0,1-.65,1.44,33.6,33.6,0,0,1-3.14,4.88,31.23,31.23,0,0,1-6,6.14,27.48,27.48,0,0,1-9.75,4,37.16,37.16,0,0,1-10.52.65,31.72,31.72,0,0,1-8.41-1.87,25.26,25.26,0,0,1-5.17-2.63,14.27,14.27,0,0,1-1.28-.93c-.28-.22-.42-.34-.41-.36s.63.42,1.8,1.12a28.11,28.11,0,0,0,5.19,2.46,32.71,32.71,0,0,0,8.32,1.73,37.64,37.64,0,0,0,10.37-.68,27.51,27.51,0,0,0,9.58-3.88,32.18,32.18,0,0,0,6-6,38.57,38.57,0,0,0,3.25-4.75C440.88,144.44,441.16,143.74,441.21,143.76Z" style="fill: rgb(38, 50, 56); transform-origin: 418.46px 152.635px;" id="eljjycij88h8" class="animable"></path><path d="M412.85,66.3s0,.08-.1.21l-.34.59c-.31.51-.76,1.26-1.36,2.22-1.2,1.92-3,4.68-5.22,8.05l-7.92,11.82c-3,4.45-6.23,9.35-9.41,14.64a55.53,55.53,0,0,0-4.16,8,38.48,38.48,0,0,0-2.19,8,40.12,40.12,0,0,0,.33,14.07A53.57,53.57,0,0,0,385.2,143c.39,1.06.76,1.86,1,2.41l.26.63a.92.92,0,0,1,.07.22.68.68,0,0,1-.12-.2l-.3-.61c-.26-.54-.66-1.32-1.08-2.38a49.3,49.3,0,0,1-2.89-9.16,39.93,39.93,0,0,1-.45-14.21,38.48,38.48,0,0,1,2.2-8.15,55.39,55.39,0,0,1,4.18-8c3.19-5.3,6.47-10.2,9.46-14.64l8-11.75,5.35-8L412.32,67l.39-.56Z" style="fill: rgb(255, 255, 255); transform-origin: 397.054px 106.28px;" id="elemizsojxt3t" class="animable"></path><path d="M261.93,19.3S248.85,38,245.54,44.12c-2.31,4.25-6.35,13.56.14,24.62,5.44,9.27,12.84,9.82,18.18,9.82,7.5,0,18.46-7.48,18.46-21.82,0,0-.2-7.94-3.75-13.25-2.74-4.09-16.07-24.93-16.07-24.93Z" style="fill: rgb(245, 245, 245); transform-origin: 262.241px 48.56px;" id="eli1a0jnk7qjm" class="animable"></path><path d="M280.75,57s-.18-7.35-3.47-12.26C274.76,41,262.57,22,262.41,21.71c-1.32,1.76-1.33,4.39-1,6.69a97,97,0,0,0,3,12,43.6,43.6,0,0,1,2,12.19c-.07,4.15-1.25,8.41-3.92,11.38A11.49,11.49,0,0,1,254,67.86a12.74,12.74,0,0,1-9-3.84,23.39,23.39,0,0,0,1.93,4.13c5,8.59,11.89,9.09,16.83,9.09C270.6,77.24,280.75,70.32,280.75,57Z" style="fill: rgb(224, 224, 224); transform-origin: 262.875px 49.475px;" id="el6ki5a5rzjpp" class="animable"></path><path d="M275.34,49.8c.45-.21,1.57,1.09,2.29,3.77a17.89,17.89,0,0,1-.71,10.76,16.16,16.16,0,0,1-6.62,8.07c-2.28,1.31-3.92,1.36-4.1.87s1-1.52,2.53-3.19a23,23,0,0,0,4.73-7.32A24.47,24.47,0,0,0,275,54C275,51.61,274.84,50,275.34,49.8Z" style="fill: rgb(255, 255, 255); transform-origin: 272.163px 61.6669px;" id="el14o4jjsbjes" class="animable"></path><ellipse cx="274.19" cy="47.21" rx="1.28" ry="1.38" style="fill: rgb(255, 255, 255); transform-origin: 274.19px 47.21px;" id="el86667ymm65c" class="animable"></ellipse><path d="M251.63,43.31c.91.6,1.12,2,1,3.73a37.33,37.33,0,0,1-1,6.09,38.32,38.32,0,0,1-1.74,5.92c-.67,1.6-1.48,2.77-2.56,2.91s-2.21-.85-3-2.79a14.65,14.65,0,0,1,3.36-14.64C249.27,43.12,250.74,42.72,251.63,43.31Z" style="fill: rgb(255, 255, 255); transform-origin: 248.14px 52.5099px;" id="elx1eir5bj6c" class="animable"></path><g id="elv9ifejtlide"><path d="M259.63,41.62c2.57-.51,6.12-3.66,6.12-3.66a62.23,62.23,0,0,0-6.71.57A38.63,38.63,0,0,0,252.86,41l.93-1.43c.91-.61,3.91-2.71,5.15-4.54,1.48-2.17,1.57-7.22,1.57-7.22a54.42,54.42,0,0,0-4.46,5c-1.13,1.68-2.65,6.79-2.65,6.79l0,0-.55.69a23.2,23.2,0,0,0-.36-6.79c0-.12-.08-.23-.12-.35-.8,1.2-1.59,2.39-2.33,3.54.93,1.75,2.14,3.65,2.42,4.1-1.14,1.44-2.62,3.29-4.25,5.28a27.16,27.16,0,0,0-.38-5.95c-.89,1.43-1.65,2.68-2.19,3.65.76,1.27,1.54,2.47,1.94,3.07-1.41,1.72-2.91,3.52-4.38,5.24.07-.72.15-1.89.16-3.17a25.52,25.52,0,0,0-.93,3.76l.11.18-.16.18c0,.33-.1.66-.13,1,.21-.21.43-.42.64-.64l0,.11s4.77,2.57,7.89,2.95,8.53-2.32,8.53-2.32a63.81,63.81,0,0,0-7.81-1.95c-1.94-.22-6.46.43-8.18.7,1.66-1.78,3.25-3.63,4.77-5.53v.08s5.17,1.64,8.31,1.42,7.94-3.87,7.94-3.87a64.5,64.5,0,0,0-8-.46,44.25,44.25,0,0,0-7.55,2c1.25-1.62,2.46-3.27,3.6-5A31.72,31.72,0,0,0,259.63,41.62Z" style="fill: #2C94E9; opacity: 0.1; transform-origin: 254px 42.1483px;" class="animable" id="ellhhqrz8sjx9"></path></g><g id="el6zqndobj0yt"><path d="M278.26,65.27s.95.21,2.39.49a23.52,23.52,0,0,0,.75-2.24C279.52,64.5,278.26,65.27,278.26,65.27Z" style="fill: #2C94E9; opacity: 0.1; transform-origin: 279.83px 64.64px;" class="animable" id="elicqyvl85w"></path></g><g id="ele5bt0afhx2w"><path d="M281.21,49.64A54.77,54.77,0,0,0,273.39,54s4.58.75,8.82,1.17A34.56,34.56,0,0,0,281.21,49.64Z" style="fill: #2C94E9; opacity: 0.1; transform-origin: 277.8px 52.405px;" class="animable" id="el13jn105vav3g"></path></g><g id="elslcxyud3rdf"><path d="M274.26,36.87A49,49,0,0,0,266.15,41,118.21,118.21,0,0,0,278,42.66C277.15,41.34,275.8,39.27,274.26,36.87Z" style="fill: #2C94E9; opacity: 0.1; transform-origin: 272.075px 39.765px;" class="animable" id="ellu8sysdtvrg"></path></g><path d="M261.93,19.3s.1-.16.55-.76l0,0,0,0c1.21,1.76,6.22,9.43,13.57,20.77L279,43.74A21.1,21.1,0,0,1,281.25,49a34,34,0,0,1,1.16,5.91c.06.52.1,1,.13,1.56s0,1,0,1.59,0,1.06-.1,1.6-.16,1.06-.23,1.6a22.12,22.12,0,0,1-6,11.94,20.83,20.83,0,0,1-5.83,4.11c-.54.27-1.12.45-1.68.69s-1.18.34-1.77.51a15.76,15.76,0,0,1-3.69.35,23,23,0,0,1-7.8-1.21,17,17,0,0,1-6.44-4.16,23.56,23.56,0,0,1-4.25-6.06,26,26,0,0,1-2.34-6.7,23.29,23.29,0,0,1,1.29-12.93,33.29,33.29,0,0,1,2.65-5.31c1-1.63,2-3.16,2.91-4.62,3.8-5.81,7-10.43,9.24-13.61L261,20.55l.69-.94a3.9,3.9,0,0,1,.24-.31,1.74,1.74,0,0,1-.2.34l-.64,1-2.51,3.71c-2.16,3.22-5.33,7.87-9.09,13.7-.93,1.46-1.91,3-2.87,4.62A33.87,33.87,0,0,0,244,47.9a22.94,22.94,0,0,0-1.22,12.69,25.3,25.3,0,0,0,2.31,6.56,23,23,0,0,0,4.17,5.93,16.44,16.44,0,0,0,6.25,4,22.67,22.67,0,0,0,7.64,1.18,15.77,15.77,0,0,0,3.57-.33c.57-.17,1.15-.31,1.71-.5s1.11-.41,1.64-.68a20.15,20.15,0,0,0,5.68-4,21.72,21.72,0,0,0,5.92-11.66c.08-.53.15-1.05.23-1.57s.07-1.05.1-1.57.08-1.05.05-1.55-.07-1-.12-1.53a33.91,33.91,0,0,0-1.12-5.84A21.18,21.18,0,0,0,278.61,44l-2.83-4.44c-7.29-11.39-12.2-19.11-13.3-20.94h0C262.07,19.16,261.93,19.3,261.93,19.3Z" style="fill: rgb(38, 50, 56); transform-origin: 262.287px 48.7021px;" id="ela0vx3li3odd" class="animable"></path><path d="M261.66,21.13a2.74,2.74,0,0,1-.24.48l-.78,1.31c-.69,1.13-1.73,2.75-3,4.73-2.57,4-6.37,9.32-10.11,15.49a32.61,32.61,0,0,0-2.42,4.63,22.14,22.14,0,0,0-1.29,4.68,23.53,23.53,0,0,0,.17,8.2A32.09,32.09,0,0,0,245.52,66a20.5,20.5,0,0,1,.72,1.92,2.61,2.61,0,0,1-.26-.46c-.16-.31-.4-.77-.65-1.39a27.66,27.66,0,0,1-1.73-5.36,23.14,23.14,0,0,1-.28-8.34,22.42,22.42,0,0,1,1.28-4.79,32.2,32.2,0,0,1,2.46-4.72c3.75-6.19,7.6-11.5,10.25-15.43l3.16-4.63c.34-.51.63-.92.86-1.26S261.64,21.12,261.66,21.13Z" style="fill: rgb(255, 255, 255); transform-origin: 252.364px 44.5246px;" id="ell2uiulbea2" class="animable"></path><path d="M78.29,118.18S64,138.64,60.38,145.29c-2.52,4.64-6.93,14.81.16,26.9,5.94,10.13,14,10.72,19.85,10.72,8.2,0,20.17-8.17,20.17-23.83,0,0-.21-8.68-4.09-14.47-3-4.48-17.55-27.24-17.55-27.24Z" style="fill: rgb(245, 245, 245); transform-origin: 78.6275px 150.14px;" id="elcimfzxpdul" class="animable"></path><path d="M98.85,159.41s-.2-8-3.79-13.4C92.3,141.9,79,121.08,78.82,120.81c-1.45,1.92-1.46,4.8-1.09,7.31A105.5,105.5,0,0,0,81,141.24a47.17,47.17,0,0,1,2.18,13.32c-.07,4.53-1.36,9.18-4.28,12.43a12.59,12.59,0,0,1-9.27,4.24,13.94,13.94,0,0,1-9.89-4.2,25.9,25.9,0,0,0,2.11,4.51c5.5,9.38,13,9.93,18.38,9.93C87.76,181.47,98.85,173.91,98.85,159.41Z" style="fill: rgb(224, 224, 224); transform-origin: 79.295px 151.14px;" id="elmrfpofv4uu" class="animable"></path><path d="M92.94,151.5c.49-.23,1.71,1.19,2.5,4.12a19.54,19.54,0,0,1-.77,11.75,17.68,17.68,0,0,1-7.24,8.81c-2.49,1.44-4.28,1.49-4.47,1s1.06-1.66,2.76-3.49a25.31,25.31,0,0,0,5.17-8,27.26,27.26,0,0,0,1.68-9.58C92.59,153.48,92.39,151.74,92.94,151.5Z" style="fill: rgb(255, 255, 255); transform-origin: 89.4719px 164.468px;" id="elkgh17fbe6hi" class="animable"></path><ellipse cx="91.68" cy="148.67" rx="1.39" ry="1.51" style="fill: rgb(255, 255, 255); transform-origin: 91.68px 148.67px;" id="elvvhevg71crj" class="animable"></ellipse><path d="M67,144.41c.91.6,1.07,2.09.9,4a54.23,54.23,0,0,1-1.23,6.69,54.49,54.49,0,0,1-1.81,6.55c-.67,1.76-1.46,3-2.54,3.17s-2.22-.95-3-3.05A16.45,16.45,0,0,1,63,145.86C64.62,144.3,66.15,143.82,67,144.41Z" style="fill: rgb(255, 255, 255); transform-origin: 63.2915px 154.502px;" id="elw2m5upi1ap" class="animable"></path><g id="elvzq6owghrl9"><path d="M96.64,161.73q-1.23-3.79-2.75-7.48l.07.05A40.88,40.88,0,0,0,98.62,149a20.39,20.39,0,0,0-2.15-4.37L96,144c-.19.35-.36.68-.49,1a48.28,48.28,0,0,0-2.1,8.27c-.88-2.05-1.83-4.08-2.84-6.07a40.23,40.23,0,0,0,3.51-6.1c-.7-1.07-1.47-2.28-2.31-3.57-.27.64-.51,1.24-.66,1.71a41.92,41.92,0,0,0-.91,7.22c-.29-.55-.58-1.1-.88-1.65-.1-1.2-.5-5.17-1.59-7.33-1.3-2.57-6.07-5.33-6.07-5.33A57.28,57.28,0,0,0,84.15,139c1,2,5.08,6.13,5.08,6.13l0,0,.37.89c-.89-.58-4.26-2.72-6.67-3.26-2.81-.63-8,1.32-8,1.32a58.6,58.6,0,0,0,6.92,2.49c2,.43,7.13.14,8,.09.77,1.85,1.75,4.25,2.8,6.86a26.06,26.06,0,0,0-6.78-3c-3-.6-8.51,1.62-8.51,1.62a62.92,62.92,0,0,0,7.49,2.5c1.94.37,6.63,0,8.2-.09.89,2.26,1.81,4.64,2.67,7-1.42-1-4.9-3.2-7.49-3.86-3.33-.84-9.56,1.32-9.56,1.32a70.93,70.93,0,0,0,8.19,3.21c2.19.54,7.65.42,9.25.37.28.79.56,1.56.82,2.31a41.84,41.84,0,0,1,1.37,5c.12-.27.24-.54.35-.81-.55-2.21-1.15-4.41-1.84-6.58H97s1.72-1.11,3.54-2.58c0-.27,0-.54,0-.82a35.18,35.18,0,0,0-.58-5A57.71,57.71,0,0,0,96.64,161.73Z" style="fill: #2C94E9; opacity: 0.1; transform-origin: 87.735px 151.025px;" class="animable" id="eld19o7fisk4f"></path></g><path d="M78.29,118.18s.12-.18.6-.83l0,0,0,0c1.32,1.93,6.79,10.31,14.82,22.7l3.12,4.84a22.74,22.74,0,0,1,2.5,5.68,37.12,37.12,0,0,1,1.26,6.46c.06.56.11,1.13.14,1.7s0,1.15,0,1.73,0,1.17-.11,1.75-.17,1.16-.26,1.75a24.2,24.2,0,0,1-6.58,13,22.77,22.77,0,0,1-6.36,4.48c-.59.3-1.23.5-1.84.75s-1.29.38-1.93.56-1.32.27-2,.31a19.6,19.6,0,0,1-2,.08,25.45,25.45,0,0,1-8.52-1.33,18.51,18.51,0,0,1-7-4.54,25.64,25.64,0,0,1-4.63-6.61,27.93,27.93,0,0,1-2.56-7.31,25.53,25.53,0,0,1,1.4-14.12,36.82,36.82,0,0,1,2.9-5.79c1.06-1.79,2.15-3.45,3.18-5.05C68.53,132.07,72,127,74.46,123.54l2.82-4,.74-1,.27-.34a2.36,2.36,0,0,1-.22.37l-.71,1.06-2.73,4c-2.37,3.52-5.83,8.59-9.94,15-1,1.6-2.09,3.27-3.14,5a35.77,35.77,0,0,0-2.84,5.75,25,25,0,0,0-1.34,13.87,27.65,27.65,0,0,0,2.53,7.17A25.33,25.33,0,0,0,64.46,177a18.14,18.14,0,0,0,6.84,4.41,24.68,24.68,0,0,0,8.34,1.28,17.57,17.57,0,0,0,3.91-.36c.62-.19,1.25-.34,1.87-.55s1.21-.44,1.79-.73a22.46,22.46,0,0,0,6.21-4.37,23.68,23.68,0,0,0,6.47-12.76c.09-.57.18-1.14.26-1.71s.07-1.15.11-1.72.09-1.14,0-1.69-.07-1.12-.13-1.67A37,37,0,0,0,99,150.7a22.5,22.5,0,0,0-2.42-5.59l-3.09-4.85c-8-12.44-13.34-20.87-14.55-22.87h0C78.44,118,78.29,118.18,78.29,118.18Z" style="fill: rgb(38, 50, 56); transform-origin: 78.6291px 150.246px;" id="el56s592lwd97" class="animable"></path><path d="M96.11,169.68a4.29,4.29,0,0,1-.49,1.27,20.54,20.54,0,0,1-2,3.14,19.57,19.57,0,0,1-3.87,4,17.43,17.43,0,0,1-6.26,2.57,21.9,21.9,0,0,1-12.14-.8,16,16,0,0,1-3.3-1.72c-.37-.24-.63-.46-.81-.6s-.26-.24-.25-.25a25.52,25.52,0,0,0,4.49,2.22,22.6,22.6,0,0,0,11.9.64,17.7,17.7,0,0,0,6.1-2.45,21.33,21.33,0,0,0,3.85-3.79,26.26,26.26,0,0,0,2.09-3C95.88,170.11,96.07,169.66,96.11,169.68Z" style="fill: rgb(38, 50, 56); transform-origin: 81.5496px 175.423px;" id="el57c3t7uxcl5" class="animable"></path><path d="M78,120.18a1.93,1.93,0,0,1-.26.52c-.2.33-.48.81-.86,1.43-.76,1.23-1.89,3-3.31,5.16-2.82,4.35-7,10.18-11.05,16.92a35.17,35.17,0,0,0-2.65,5.07,25,25,0,0,0-1.41,5.11,25.61,25.61,0,0,0,.2,9,35,35,0,0,0,1.7,5.86c.51,1.34.85,2.07.8,2.09a2.62,2.62,0,0,1-.28-.5c-.17-.35-.43-.85-.71-1.52a30.88,30.88,0,0,1-1.87-5.85,25.28,25.28,0,0,1-.31-9.11,24.78,24.78,0,0,1,1.4-5.23,36.11,36.11,0,0,1,2.68-5.15c4.11-6.77,8.3-12.56,11.2-16.85L76.7,122l.94-1.38A2.46,2.46,0,0,1,78,120.18Z" style="fill: rgb(255, 255, 255); transform-origin: 67.8582px 145.76px;" id="elzjul6urwnq" class="animable"></path><path d="M456.76,382.15s-8.6,12.31-10.78,16.32a15.67,15.67,0,0,0,.09,16.18c3.58,6.1,8.44,6.46,11.95,6.46,4.94,0,12.14-4.92,12.14-14.35,0,0-.13-5.22-2.46-8.7-1.81-2.7-10.57-16.4-10.57-16.4Z" style="fill: rgb(245, 245, 245); transform-origin: 456.967px 401.385px;" id="el85lmc7wwhzd" class="animable"></path><path d="M469.13,407s-.12-4.83-2.28-8.06c-1.66-2.48-9.67-15-9.77-15.17a6,6,0,0,0-.66,4.4,64.57,64.57,0,0,0,1.94,7.9,28.39,28.39,0,0,1,1.31,8,11.53,11.53,0,0,1-2.57,7.48,7.61,7.61,0,0,1-5.59,2.55,8.43,8.43,0,0,1-5.95-2.53,16.06,16.06,0,0,0,1.27,2.72c3.31,5.64,7.82,6,11.06,6C462.46,420.24,469.13,415.69,469.13,407Z" style="fill: rgb(224, 224, 224); transform-origin: 457.345px 402.03px;" id="elwypup2rfk8" class="animable"></path><path d="M465.58,402.2c.29-.13,1,.72,1.5,2.48a11.67,11.67,0,0,1-.47,7.08,10.61,10.61,0,0,1-4.35,5.3c-1.5.86-2.58.9-2.69.57s.64-1,1.66-2.1a15.2,15.2,0,0,0,3.11-4.81,16.19,16.19,0,0,0,1-5.76C465.36,403.39,465.24,402.35,465.58,402.2Z" style="fill: rgb(255, 255, 255); transform-origin: 463.491px 410.004px;" id="elgjty2o2uaba" class="animable"></path><path d="M465.66,400.5a.84.84,0,1,1-.84-.91A.88.88,0,0,1,465.66,400.5Z" style="fill: rgb(255, 255, 255); transform-origin: 464.822px 400.43px;" id="el0vibdl8fazyh" class="animable"></path><path d="M450,397.94a4,4,0,0,1,1.53,2.88,11.38,11.38,0,0,1-1.71,7.45,4.07,4.07,0,0,1-2.63,1.93,3,3,0,0,1-2.89-1.82,8.35,8.35,0,0,1,2.31-10.07A3,3,0,0,1,450,397.94Z" style="fill: rgb(255, 255, 255); transform-origin: 447.553px 403.891px;" id="elsy9x2lxmki" class="animable"></path><path d="M456.76,382.15s.06-.11.35-.51l0,0,0,0c.82,1.15,4.12,6.18,9,13.63l1.89,2.91a13.87,13.87,0,0,1,1.51,3.44,21.37,21.37,0,0,1,.77,3.9,9.6,9.6,0,0,1,.06,2.08,12.71,12.71,0,0,1-.22,2.12,14.67,14.67,0,0,1-4,7.9,13.92,13.92,0,0,1-3.86,2.71,10.35,10.35,0,0,1-4.73,1,15.23,15.23,0,0,1-5.16-.81,11.23,11.23,0,0,1-4.27-2.75,15.8,15.8,0,0,1-2.81-4,17,17,0,0,1-1.54-4.43,15.33,15.33,0,0,1,.86-8.54,37.22,37.22,0,0,1,3.67-6.54c2.51-3.82,4.63-6.85,6.1-8.94l1.71-2.39.46-.61a.81.81,0,0,1,.17-.2s0,.08-.13.23l-.41.64-1.63,2.45c-1.42,2.12-3.49,5.18-6,9a37.83,37.83,0,0,0-3.58,6.49,15.07,15.07,0,0,0-.79,8.3,16.55,16.55,0,0,0,1.52,4.29,15.19,15.19,0,0,0,2.72,3.88,10.91,10.91,0,0,0,4.08,2.63,15.07,15.07,0,0,0,5,.77,9.69,9.69,0,0,0,4.51-1,13.19,13.19,0,0,0,3.71-2.6,14.24,14.24,0,0,0,3.88-7.62,14.56,14.56,0,0,0,.22-2.06,9.64,9.64,0,0,0-.05-2,22.07,22.07,0,0,0-.73-3.82,13.83,13.83,0,0,0-1.44-3.35c-.65-1-1.27-2-1.86-2.92-4.78-7.49-8-12.58-8.7-13.8h.05C456.85,382.06,456.76,382.15,456.76,382.15Z" style="fill: rgb(38, 50, 56); transform-origin: 456.932px 401.482px;" id="elhdgtefgpf4o" class="animable"></path><path d="M456.58,383.35a6.71,6.71,0,0,1-.64,1.2c-.45.75-1.12,1.82-2,3.12-1.68,2.63-4.17,6.15-6.62,10.2a21.5,21.5,0,0,0-1.59,3,15.1,15.1,0,0,0-.85,3.06,15.52,15.52,0,0,0,.1,5.36,39.58,39.58,0,0,0,1.43,4.8,5.84,5.84,0,0,1-.63-1.2,17.31,17.31,0,0,1-1.16-3.52,14.88,14.88,0,0,1,.63-8.69,22,22,0,0,1,1.62-3.11c2.48-4.08,5-7.56,6.77-10.13l2.1-3A6.58,6.58,0,0,1,456.58,383.35Z" style="fill: rgb(255, 255, 255); transform-origin: 450.413px 398.72px;" id="el9tsv5hk59b" class="animable"></path><path d="M106.82,403.26s-6.52,9.32-8.17,12.35a11.86,11.86,0,0,0,.08,12.26c2.7,4.61,6.39,4.88,9,4.88,3.74,0,9.19-3.72,9.19-10.86a14.48,14.48,0,0,0-1.86-6.59c-1.37-2-8-12.41-8-12.41Z" style="fill: rgb(245, 245, 245); transform-origin: 106.951px 417.82px;" id="elvs43yimwe9" class="animable"></path><path d="M116.18,422a13.33,13.33,0,0,0-1.73-6.1c-1.25-1.87-7.32-11.36-7.4-11.48a4.54,4.54,0,0,0-.49,3.33,46.86,46.86,0,0,0,1.47,6,21.66,21.66,0,0,1,1,6.08,8.69,8.69,0,0,1-2,5.66,5.75,5.75,0,0,1-4.23,1.93,6.32,6.32,0,0,1-4.5-1.91,11.71,11.71,0,0,0,1,2.05c2.51,4.28,5.91,4.53,8.37,4.53C111.13,432.1,116.18,428.65,116.18,422Z" style="fill: rgb(224, 224, 224); transform-origin: 107.24px 418.255px;" id="el0l8zsbh0n869" class="animable"></path><path d="M113.49,418.44c.22-.1.78.54,1.14,1.88a8.88,8.88,0,0,1-.35,5.35,8.12,8.12,0,0,1-3.3,4c-1.14.65-2,.68-2,.43s.48-.75,1.26-1.59a11.28,11.28,0,0,0,2.35-3.64,12.14,12.14,0,0,0,.77-4.37C113.33,419.34,113.24,418.55,113.49,418.44Z" style="fill: rgb(255, 255, 255); transform-origin: 111.934px 424.338px;" id="elkq35gx82ds" class="animable"></path><path d="M113.55,417.15a.64.64,0,1,1-.63-.69A.66.66,0,0,1,113.55,417.15Z" style="fill: rgb(255, 255, 255); transform-origin: 112.911px 417.1px;" id="el75lp2oohum6" class="animable"></path><path d="M101.69,415.21a4.73,4.73,0,0,1,1.75,2.49,5,5,0,0,1-1.23,5.32,4.66,4.66,0,0,1-2.66,1.47,3,3,0,0,1-2.86-1.36,5.86,5.86,0,0,1,1.83-7.94A3,3,0,0,1,101.69,415.21Z" style="fill: rgb(255, 255, 255); transform-origin: 99.7966px 419.628px;" id="elhlqfbi04qh" class="animable"></path><path d="M106.82,403.26s0-.09.25-.39l0,0,0,0c.63.86,3.14,4.66,6.82,10.29l1.43,2.21a10.27,10.27,0,0,1,1.16,2.61,13.7,13.7,0,0,1,.47,6.16,11.13,11.13,0,0,1-3,6,10.17,10.17,0,0,1-2.93,2.07,7.72,7.72,0,0,1-3.61.79,11.59,11.59,0,0,1-3.93-.61,8.49,8.49,0,0,1-3.25-2.1,11.87,11.87,0,0,1-2.14-3.05,13,13,0,0,1-1.17-3.37,11.67,11.67,0,0,1,.66-6.5,27.7,27.7,0,0,1,2.79-4.95c1.9-2.89,3.52-5.18,4.63-6.76l1.31-1.8a3.52,3.52,0,0,1,.49-.61,6.19,6.19,0,0,1-.4.67l-1.23,1.86c-1.07,1.61-2.63,3.93-4.49,6.84a28,28,0,0,0-2.7,4.9,11.32,11.32,0,0,0-.59,6.26A12.71,12.71,0,0,0,98.55,427a11.54,11.54,0,0,0,2.06,2.92,8,8,0,0,0,3.06,2,11,11,0,0,0,3.76.58,8.63,8.63,0,0,0,6.18-2.7,10.63,10.63,0,0,0,2.92-5.73,13.13,13.13,0,0,0-.42-5.95,10.19,10.19,0,0,0-1.08-2.52c-.49-.76-1-1.5-1.4-2.21-3.61-5.68-6-9.54-6.56-10.47h.05A2.15,2.15,0,0,1,106.82,403.26Z" style="fill: rgb(38, 50, 56); transform-origin: 106.916px 417.936px;" id="elxhhsfj6pg4" class="animable"></path><path d="M106.68,404.17a4.17,4.17,0,0,1-.47.92c-.33.57-.83,1.38-1.47,2.38-1.26,2-3.14,4.66-5,7.72a16.79,16.79,0,0,0-1.2,2.29,11.27,11.27,0,0,0-.58,6.34A37,37,0,0,0,99,427.47a3.32,3.32,0,0,1-.51-.91,13,13,0,0,1-.9-2.66,11.67,11.67,0,0,1-.17-4.2,11,11,0,0,1,.64-2.41,16.2,16.2,0,0,1,1.23-2.37c1.87-3.09,3.8-5.72,5.14-7.66L106,405A3.8,3.8,0,0,1,106.68,404.17Z" style="fill: rgb(255, 255, 255); transform-origin: 101.992px 415.82px;" id="elorw2j2cxjd" class="animable"></path></g><g id="freepik--drop-1--inject-29" class="animable" style="transform-origin: 264.851px 246.096px;"><path d="M263.49,114.06s-59,84.43-74,111.9c-10.42,19.16-28.62,61.14.65,111,24.54,41.82,57.9,44.28,82,44.28,33.82,0,83.26-33.74,83.26-98.4,0,0-.9-35.81-16.91-59.73-12.37-18.48-72.45-112.45-72.45-112.45Z" style="fill: rgb(245, 245, 245); transform-origin: 264.833px 245.95px;" id="el8ple9mxlpn" class="animable"></path><path d="M348.34,284.25s-.83-33.15-15.65-55.3c-11.38-17-66.34-102.94-67-104-6,7.93-6,19.81-4.51,30.19,2.66,18.47,8.36,36.23,13.33,54.14s9.26,36.3,9,55-5.61,37.9-17.65,51.32A51.92,51.92,0,0,1,227.5,333c-14.22,0-30.94-6.25-40.82-17.3a107.2,107.2,0,0,0,8.71,18.61c22.71,38.72,53.59,41,75.87,41C302.58,375.33,348.34,344.1,348.34,284.25Z" style="fill: rgb(224, 224, 224); transform-origin: 267.51px 250.13px;" id="elpjwcaa6rhj" class="animable"></path><path d="M324,251.6c2-.95,7,4.92,10.3,17,3.27,11.88,3.9,30.31-3.18,48.5s-19.73,30.6-29.88,36.38c-10.27,5.94-17.68,6.15-18.46,3.94-.94-2.45,4.38-6.85,11.41-14.4a104.32,104.32,0,0,0,21.32-33c5.57-14.34,6.92-28.87,6.94-39.54S321.68,252.58,324,251.6Z" style="fill: rgb(255, 255, 255); transform-origin: 309.662px 305.106px;" id="elwwpztgzp8" class="animable"></path><path d="M324.51,239.9a5.78,5.78,0,1,1-5.76-6.22A6,6,0,0,1,324.51,239.9Z" style="fill: rgb(255, 255, 255); transform-origin: 318.74px 239.46px;" id="eljy6r5qvz3nn" class="animable"></path><path d="M217,222.33c1,.62-1,5.18-4,12.42l-1.15,2.85c-.4,1-.75,2-1.16,3.1-.85,2.12-1.6,4.44-2.45,6.86-1.59,4.87-3.17,10.25-4.52,16s-2.22,11.29-2.91,16.37c-.28,2.54-.62,5-.78,7.24-.1,1.14-.24,2.24-.31,3.3s-.14,2.08-.21,3c-.52,7.8-.71,12.77-1.84,12.92s-2.77-4.66-3.68-12.8c-.09-1-.19-2.09-.3-3.2s-.09-2.27-.14-3.48c-.11-2.4,0-5,.09-7.69A103.79,103.79,0,0,1,201.54,245c1.1-2.48,2.12-4.84,3.27-7,.57-1.07,1.08-2.11,1.65-3.07s1.13-1.87,1.66-2.75C212.49,225.31,216.17,221.76,217,222.33Z" style="fill: rgb(255, 255, 255); transform-origin: 205.382px 264.332px;" id="elc7lmtcvlvij" class="animable"></path><g id="el5uowd327sfr"><path d="M253.1,214.69c11.6-2.29,27.58-16.5,27.58-16.5s-21.3.77-30.25,2.59c-7.29,1.48-22.5,8.59-27.87,11.16q2.12-3.19,4.19-6.45c4.12-2.76,17.64-12.19,23.26-20.46,6.67-9.8,7.06-32.56,7.06-32.56s-15,15.14-20.1,22.75S225,205.85,225,205.85l.15.13-2.46,3.12c.32-4.38,1.28-20.84-1.61-30.63a16.13,16.13,0,0,0-.55-1.56c-3.6,5.4-7.16,10.77-10.53,15.94,4.21,7.9,9.64,16.5,10.92,18.49-5.15,6.5-11.83,14.86-19.17,23.85.19-5.85.28-17.85-1.68-26.87-4.05,6.44-7.48,12.1-9.92,16.49,3.42,5.72,7,11.14,8.78,13.84-6.36,7.76-13.12,15.88-19.75,23.61.29-3.25.68-8.59.73-14.45a113.11,113.11,0,0,0-4.24,17.08l.51.86-.78.89c-.23,1.52-.42,3.06-.58,4.62,1-1,2-2,2.94-3.06l.22.47s21.51,11.62,35.59,13.3,38.46-10.45,38.46-10.45-24.34-7.57-35.23-8.8c-8.74-1-29.13,2-36.85,3.17q11.22-12,21.48-24.94l0,.35s23.31,7.4,37.46,6.41,35.83-17.44,35.83-17.44-25.33-2.9-36.26-2.07c-8.76.67-27.13,6.65-34.06,9q8.49-10.92,16.24-22.4C222.87,215,242.19,216.84,253.1,214.69Z" style="fill: #2C94E9; opacity: 0.1; transform-origin: 227.75px 217.3px;" class="animable" id="el09cif27yg912"></path></g><g id="elhdrfapmwwl"><path d="M337.09,321.36s4.29.92,10.87,2.24a101.86,101.86,0,0,0,3.43-10.21C342.8,317.85,337.09,321.36,337.09,321.36Z" style="fill: #2C94E9; opacity: 0.1; transform-origin: 344.24px 318.495px;" class="animable" id="ellg34jahopye"></path></g><g id="ellffpzluf2t"><path d="M319.06,193.28c-18.62,7-36.55,18.72-36.55,18.72s34.27,6.44,53.52,7.41C332.11,213.44,326,204.08,319.06,193.28Z" style="fill: #2C94E9; opacity: 0.1; transform-origin: 309.27px 206.345px;" class="animable" id="elnxjw726lvp"></path></g><g id="elcw6sv1blhfc"><path d="M350.44,250.85a243.64,243.64,0,0,0-35.31,19.65s20.7,3.35,39.79,5.26A155,155,0,0,0,350.44,250.85Z" style="fill: #2C94E9; opacity: 0.1; transform-origin: 335.025px 263.305px;" class="animable" id="elpibffq3c8a"></path></g><path d="M263.49,114.06s.51-.71,2.54-3.38l0,0,0,0,60.75,94c4.12,6.42,8.46,13,12.85,20A94.16,94.16,0,0,1,349.86,248,154.22,154.22,0,0,1,355,274.52c.24,2.3.44,4.63.57,7a34.84,34.84,0,0,1,0,3.54l-.09,3.56A117.29,117.29,0,0,1,354,302.92a102.17,102.17,0,0,1-9.13,28.27,92.87,92.87,0,0,1-7.89,13.15,93.86,93.86,0,0,1-10.06,11.93,92,92,0,0,1-26,18.33,78.86,78.86,0,0,1-15.4,5.36,67.29,67.29,0,0,1-8.14,1.3l-2.06.18-2.07.06c-1.39.07-2.77,0-4.15,0-11.93-.14-23.9-1.33-34.89-5.4a81.16,81.16,0,0,1-8-3.37c-1.29-.66-2.54-1.4-3.81-2.09l-1.89-1-1.79-1.2-3.57-2.4-3.34-2.69L210.06,362c-.55-.45-1-1-1.56-1.46l-3.07-2.94c-8-8-14.11-17.44-19.07-27.08a111.59,111.59,0,0,1-10.47-30,100.35,100.35,0,0,1-1.17-30.2,111.14,111.14,0,0,1,6.85-27.68,128.29,128.29,0,0,1,5.52-12.42c2-4,4.19-7.75,6.36-11.44l3.29-5.43,3.3-5.27c2.16-3.49,4.36-6.83,6.47-10.14,8.52-13.14,16.43-24.9,23.4-35.2s13-19.14,18-26.35l11.51-16.57c1.32-1.88,2.33-3.31,3-4.29s1.05-1.45,1.05-1.45l-1,1.48-3,4.32-11.42,16.63c-5,7.22-11,16.08-17.94,26.39S215.31,185,206.82,198.12c-2.1,3.31-4.3,6.66-6.46,10.14q-1.62,2.61-3.29,5.27L193.8,219c-2.16,3.68-4.36,7.45-6.34,11.42A131,131,0,0,0,182,242.77a111.41,111.41,0,0,0-6.8,27.58,100.41,100.41,0,0,0,1.19,30.06,111.09,111.09,0,0,0,10.45,29.85c4.94,9.6,11.05,19,19,26.95l3,2.93c.51.47,1,1,1.54,1.44l1.66,1.33,3.31,2.67,3.55,2.39,1.78,1.19,1.88,1c1.26.68,2.49,1.41,3.78,2.06a80.06,80.06,0,0,0,8,3.36c10.92,4,22.82,5.22,34.73,5.36,1.37,0,2.76.06,4.13,0l2.05-.06,2-.18a64.42,64.42,0,0,0,8.08-1.29,77.32,77.32,0,0,0,15.29-5.32,91.56,91.56,0,0,0,25.87-18.22,94.37,94.37,0,0,0,10-11.86A93.41,93.41,0,0,0,344.38,331a101.77,101.77,0,0,0,9.1-28.13,118.35,118.35,0,0,0,1.57-14.27c0-1.19.06-2.37.08-3.54a34.24,34.24,0,0,0,0-3.51c-.13-2.34-.33-4.66-.57-6.95a153.28,153.28,0,0,0-5.12-26.47,94.16,94.16,0,0,0-10.11-23.22c-4.37-6.94-8.72-13.59-12.83-20L266,110.72h.05C264,113.38,263.49,114.06,263.49,114.06Z" style="fill: rgb(38, 50, 56); transform-origin: 264.851px 246.106px;" id="elt23qxi1vum" class="animable"></path><path d="M337.05,326.65a39.94,39.94,0,0,1-2.31,5.1,90.54,90.54,0,0,1-8.37,12.77,98.58,98.58,0,0,1-6.87,8,66.5,66.5,0,0,1-9.05,8.06A72.53,72.53,0,0,1,284.85,371a97.47,97.47,0,0,1-27.64,1.74,84,84,0,0,1-22.1-4.81,69.13,69.13,0,0,1-13.66-6.8c-1.53-1-2.65-1.8-3.41-2.37l-.86-.66a1.69,1.69,0,0,1-.28-.23,1.92,1.92,0,0,1,.32.19c.22.15.51.36.89.61.77.54,1.9,1.37,3.45,2.29a71.64,71.64,0,0,0,13.67,6.62,84.78,84.78,0,0,0,22,4.68,98,98,0,0,0,27.5-1.77,72.59,72.59,0,0,0,25.42-10.32,66.82,66.82,0,0,0,9-8,100.68,100.68,0,0,0,6.89-7.93,96.28,96.28,0,0,0,8.48-12.64c.85-1.59,1.49-2.83,1.86-3.7.19-.41.34-.74.46-1A1.71,1.71,0,0,1,337.05,326.65Z" style="fill: rgb(38, 50, 56); transform-origin: 276.975px 349.85px;" id="elv07zgxr6k98" class="animable"></path><path d="M262.24,122.29l-.3.53c-.23.36-.54.87-.94,1.52-.84,1.34-2.05,3.32-3.66,5.83-3.2,5.05-7.94,12.28-13.87,21.17s-13.09,19.41-21,31.12S206,207.12,197.62,221.09a145.89,145.89,0,0,0-11,21,102.31,102.31,0,0,0-5.8,21.29,105.18,105.18,0,0,0,1,37.24,136,136,0,0,0,7.3,24.16c1.06,2.79,2,4.89,2.67,6.34.31.71.55,1.25.71,1.64s.23.57.23.57-.1-.18-.27-.55-.44-.92-.76-1.62c-.66-1.43-1.67-3.52-2.77-6.3a132.36,132.36,0,0,1-7.47-24.16,105.08,105.08,0,0,1-1.1-37.39,102.09,102.09,0,0,1,5.8-21.41,145.35,145.35,0,0,1,11-21.11c8.39-14,17-26.91,24.91-38.62l21.07-31.07c6-8.85,10.75-16.06,14-21.07,1.61-2.49,2.87-4.44,3.74-5.77l1-1.5C262.11,122.46,262.24,122.29,262.24,122.29Z" style="fill: rgb(255, 255, 255); transform-origin: 220.714px 227.81px;" id="el6gkesrnir4j" class="animable"></path></g><defs>     <filter id="active" height="200%">         <feMorphology in="SourceAlpha" result="DILATED" operator="dilate" radius="2"></feMorphology>                <feFlood flood-color="#32DFEC" flood-opacity="1" result="PINK"></feFlood>        <feComposite in="PINK" in2="DILATED" operator="in" result="OUTLINE"></feComposite>        <feMerge>            <feMergeNode in="OUTLINE"></feMergeNode>            <feMergeNode in="SourceGraphic"></feMergeNode>        </feMerge>    </filter>    <filter id="hover" height="200%">        <feMorphology in="SourceAlpha" result="DILATED" operator="dilate" radius="2"></feMorphology>                <feFlood flood-color="#ff0000" flood-opacity="0.5" result="PINK"></feFlood>        <feComposite in="PINK" in2="DILATED" operator="in" result="OUTLINE"></feComposite>        <feMerge>            <feMergeNode in="OUTLINE"></feMergeNode>            <feMergeNode in="SourceGraphic"></feMergeNode>        </feMerge>            <feColorMatrix type="matrix" values="0   0   0   0   0                0   1   0   0   0                0   0   0   0   0                0   0   0   1   0 "></feColorMatrix>    </filter></defs></svg>