<svg id="icons" xmlns="http://www.w3.org/2000/svg" viewBox="0 0 340 340"><path d="M204.807,228.04c-6.731-71.356-109.185-71.312-115.894,0L81.6,330H212.122Z" style="fill:#ffd071"/><path d="M219.185,82.325A72.325,72.325,0,0,1,146.86,154.65c-95.741-3.309-95.716-141.356,0-144.65A72.325,72.325,0,0,1,219.185,82.325Z" style="fill:#ffd071"/><path d="M112.352,85.857c-6.3,0-10.725,6.741-8.426,12.989,3.76,10.217,12.243,23.466,31.294,28.043a49.837,49.837,0,0,0,23.281,0c19.051-4.577,27.533-17.826,31.293-28.043,2.3-6.248-2.128-12.989-8.426-12.989Z" style="fill:#fff"/><path d="M265.465,276.657A53.343,53.343,0,0,1,212.122,330c-70.613-2.44-70.6-104.255,0-106.685A53.343,53.343,0,0,1,265.465,276.657Z" style="fill:#fff"/><path d="M223.843,272.658h-7.721v-7.721a4,4,0,0,0-8,0v7.721H200.4a4,4,0,0,0,0,8h7.721v7.72a4,4,0,0,0,8,0v-7.72h7.721C229.1,280.568,229.1,272.746,223.843,272.658Z" style="fill:#83db7d"/><path d="M146.86,158.65A76.412,76.412,0,0,1,70.535,82.325c3.586-101.017,149.079-100.991,152.65,0A76.411,76.411,0,0,1,146.86,158.65Zm0-144.65A68.4,68.4,0,0,0,78.535,82.325c3.21,90.429,133.454,90.406,136.65,0A68.4,68.4,0,0,0,146.86,14Z" style="fill:#383a49"/><path d="M160.9,334H81.6a4,4,0,0,1-3.99-4.286l7.316-101.96A62.1,62.1,0,0,1,201.547,202.76a4,4,0,0,1-7.042,3.8,54.1,54.1,0,0,0-101.6,21.77L85.9,326h75C166.149,326.087,166.16,333.911,160.9,334Z" style="fill:#383a49"/><path d="M146.86,132.261c-24,.515-41.868-16.37-46.687-32.035a13.913,13.913,0,0,1,1.635-12.763,12.749,12.749,0,0,1,10.544-5.606h69.016c9.037-.247,15.53,10.107,12.18,18.37C188.709,115.906,170.872,132.77,146.86,132.261Zm-34.508-42.4c-3.621-.06-6.021,4.351-4.672,7.607,5.666,17.95,26.86,31.224,49.887,25.535,17.3-4.155,25.031-16.179,28.473-25.535,1.344-3.255-1.043-7.669-4.672-7.607Z" style="fill:#383a49"/><path d="M212.122,334a57.407,57.407,0,0,1-57.342-57.342c2.693-75.894,112-75.875,114.685,0A57.408,57.408,0,0,1,212.122,334Zm0-106.685a49.4,49.4,0,0,0-49.342,49.343c2.318,65.305,96.377,65.289,98.685,0A49.4,49.4,0,0,0,212.122,227.315Z" style="fill:#383a49"/><path d="M124.772,62.514a4,4,0,0,0,4-4v-2.99a4,4,0,1,0-8,0v2.99A4,4,0,0,0,124.772,62.514Z" style="fill:#383a49"/><path d="M168.948,62.514a4,4,0,0,0,4-4v-2.99a4,4,0,0,0-8,0v2.99A4,4,0,0,0,168.948,62.514Z" style="fill:#383a49"/></svg>